<svg width="21" height="22" viewBox="0 0 21 22" fill="none" xmlns="http://www.w3.org/2000/svg">
<path d="M16.0259 16.1636C15.6392 16.1636 15.265 16.2437 14.9211 16.3945L13.7884 15.2617L11.1367 17.9134L14.0684 20.8451C14.0684 20.8449 14.0684 20.8448 14.0684 20.8444C14.0728 20.849 14.0768 20.8537 14.0814 20.8581C14.6008 21.3776 15.2914 21.6636 16.0259 21.6636C16.7605 21.6636 17.4511 21.3776 17.9704 20.8581C19.0427 19.786 19.0427 18.0414 17.9704 16.9691C17.4511 16.4496 16.7605 16.1636 16.0259 16.1636ZM17.0866 19.9743C16.8033 20.2577 16.4266 20.4136 16.0261 20.4136C15.6254 20.4136 15.2487 20.2577 14.9654 19.9743C14.3806 19.3895 14.3806 18.4377 14.9654 17.8529C15.2486 17.5695 15.6254 17.4136 16.0261 17.4136C16.4266 17.4136 16.8033 17.5695 17.0866 17.8529C17.6714 18.4377 17.6714 19.3895 17.0866 19.9743Z" fill="#E8505B"/>
<path d="M16.3595 11.3277C17.0544 10.6932 17.4487 9.82588 17.47 8.88544C17.4914 7.94484 17.1369 7.06039 16.4715 6.39519L16.0296 5.95312L5.58487 16.3979C5.24112 16.247 4.86693 16.1669 4.4802 16.1669C3.74566 16.1669 3.0549 16.4529 2.53553 16.9724C1.46342 18.0445 1.46342 19.7892 2.53553 20.8614C3.0549 21.381 3.7455 21.667 4.48004 21.667C5.2097 21.667 5.89574 21.3846 6.41381 20.8717V20.8722L11.7473 15.5388L16.3595 11.3277ZM5.54076 19.9776C5.25739 20.261 4.88076 20.4169 4.48004 20.4169C4.07949 20.4169 3.70269 20.261 3.41949 19.9776C2.83452 19.3928 2.83452 18.441 3.41949 17.8562C3.70269 17.5728 4.07932 17.4169 4.48004 17.4169C4.88076 17.4169 5.25739 17.5728 5.54076 17.8562C6.12556 18.441 6.12556 19.3928 5.54076 19.9776ZM10.2503 15.0002C9.90505 15.0002 9.62526 14.7204 9.62526 14.3752C9.62526 14.03 9.90505 13.7502 10.2503 13.7502C10.5955 13.7502 10.8753 14.03 10.8753 14.3752C10.8753 14.7204 10.5955 15.0002 10.2503 15.0002Z" fill="#E8505B"/>
<path d="M18.6251 0.332031H1.87501C0.841152 0.332031 0 1.17318 0 2.20705V3.66539H20.5002V2.20705C20.5002 1.17318 19.659 0.332031 18.6251 0.332031Z" fill="#E8505B"/>
<path d="M6.71457 13.4975L15.298 4.91406H0V11.6224C0 12.6563 0.841152 13.4975 1.87501 13.4975H6.71457Z" fill="#E8505B"/>
<path d="M16.9134 5.06657L17.3555 5.50847C18.2645 6.41749 18.7489 7.626 18.7197 8.911C18.6904 10.1962 18.1517 11.3812 17.2023 12.2481L15.834 13.4975H18.6253C19.6592 13.4975 20.5004 12.6563 20.5004 11.6224V4.91406H16.7611L16.9134 5.06657Z" fill="#E8505B"/>
</svg>
