<svg width="22" height="22" viewBox="0 0 22 22" fill="none" xmlns="http://www.w3.org/2000/svg">
<path fill-rule="evenodd" clip-rule="evenodd" d="M14.8265 2.39126C14.8265 3.71188 13.7558 4.78252 12.4352 4.78252C11.1146 4.78252 10.0439 3.71188 10.0439 2.39126C10.0439 1.07064 11.1146 0 12.4352 0C13.7558 0 14.8265 1.07064 14.8265 2.39126Z" fill="#9A5BFF"/>
<path fill-rule="evenodd" clip-rule="evenodd" d="M20.0874 4.30549C20.0874 5.62611 19.0167 6.69675 17.6959 6.69675C16.3753 6.69675 15.3047 5.62611 15.3047 4.30549C15.3047 2.9847 16.3753 1.91406 17.6959 1.91406C19.0167 1.91406 20.0874 2.9847 20.0874 4.30549Z" fill="#9A5BFF"/>
<path fill-rule="evenodd" clip-rule="evenodd" d="M22.0001 12.9137V10.0442C22.0001 9.66337 21.8491 9.29844 21.5798 9.02973C21.3111 8.76038 20.9461 8.60938 20.5653 8.60938H3.34787C2.96724 8.60938 2.60228 8.76038 2.3336 9.02973C2.06426 9.29843 1.91309 9.66337 1.91309 10.0442V20.5657C1.91309 20.9465 2.06425 21.3114 2.3336 21.5801C2.60231 21.8495 2.96725 22.0005 3.34787 22.0005H20.5653C20.9461 22.0005 21.3111 21.8495 21.5798 21.5801C21.8491 21.3114 22.0001 20.9465 22.0001 20.5657V17.6961H17.6958C16.9033 17.6961 16.261 17.0538 16.261 16.2613V14.3484C16.261 13.5559 16.9033 12.9136 17.6958 12.9136L22.0001 12.9137Z" fill="#9A5BFF"/>
<path fill-rule="evenodd" clip-rule="evenodd" d="M1.43479 8.60938C1.05399 8.60938 0.689068 8.76038 0.420353 9.02973C0.15101 9.29843 0 9.66337 0 10.0442V20.5657C0 20.9465 0.151006 21.3114 0.420353 21.5801C0.689056 21.8495 1.054 22.0005 1.43479 22.0005C1.12622 21.5893 0.956472 21.0861 0.956472 20.5657V10.0442C0.956472 9.52375 1.12621 9.02059 1.43479 8.60938Z" fill="#9A5BFF"/>
<path fill-rule="evenodd" clip-rule="evenodd" d="M21.9993 13.8672V16.7368H17.695C17.4311 16.7368 17.2168 16.5225 17.2168 16.2584V14.3455C17.2168 14.0814 17.4311 13.8672 17.695 13.8672H21.9993ZM18.6516 15.7803H20.5645C20.8286 15.7803 21.0428 15.566 21.0428 15.302C21.0428 15.0379 20.8286 14.8237 20.5645 14.8237H18.6516C18.3875 14.8237 18.1733 15.0379 18.1733 15.302C18.1733 15.566 18.3875 15.7803 18.6516 15.7803Z" fill="#9A5BFF"/>
<path fill-rule="evenodd" clip-rule="evenodd" d="M2.89592 7.65418H11.4518C11.2137 5.50343 9.38764 3.82812 7.17364 3.82812C4.95964 3.82812 3.13364 5.50343 2.89551 7.65418H2.89592Z" fill="#9A5BFF"/>
</svg>
