<svg width="85" height="85" viewBox="0 0 85 85" fill="none" xmlns="http://www.w3.org/2000/svg">
<path d="M70.8335 21.2501C72.7121 21.2501 74.5138 21.9964 75.8422 23.3247C77.1706 24.6531 77.9168 26.4548 77.9168 28.3334V63.7501C77.9168 65.6287 77.1706 67.4304 75.8422 68.7588C74.5138 70.0871 72.7121 70.8334 70.8335 70.8334H14.1668C12.2882 70.8334 10.4865 70.0871 9.15816 68.7588C7.82977 67.4304 7.0835 65.6287 7.0835 63.7501V21.2501C7.0835 19.3715 7.82977 17.5698 9.15816 16.2414C10.4865 14.913 12.2882 14.1667 14.1668 14.1667H35.4168L42.5002 21.2501H70.8335ZM38.0731 46.0417H49.5835V60.2084H56.6668V46.0417H68.1772L53.1252 30.9897" fill="#6D6D6D"/>
</svg>
