<svg width="24" height="24" viewBox="0 0 24 24" fill="none" xmlns="http://www.w3.org/2000/svg">
<path d="M19.4663 22.6654H4.53301C3.68432 22.6654 2.87038 22.3282 2.27027 21.7281C1.67015 21.128 1.33301 20.3141 1.33301 19.4654V2.3987C1.33301 2.1158 1.44539 1.84449 1.64543 1.64445C1.84547 1.44441 2.11678 1.33203 2.39967 1.33203H17.333C17.6159 1.33203 17.8872 1.44441 18.0873 1.64445C18.2873 1.84449 18.3997 2.1158 18.3997 2.3987V15.1987H22.6663V19.4654C22.6663 20.3141 22.3292 21.128 21.7291 21.7281C21.129 22.3282 20.315 22.6654 19.4663 22.6654ZM18.3997 17.332V19.4654C18.3997 19.7483 18.5121 20.0196 18.7121 20.2196C18.9121 20.4197 19.1834 20.532 19.4663 20.532C19.7492 20.532 20.0206 20.4197 20.2206 20.2196C20.4206 20.0196 20.533 19.7483 20.533 19.4654V17.332H18.3997ZM5.59967 6.66536V8.7987H14.133V6.66536H5.59967ZM5.59967 10.932V13.0654H14.133V10.932H5.59967ZM5.59967 15.1987V17.332H10.933V15.1987H5.59967Z" fill="#FFA700"/>
</svg>
