<svg width="22" height="24" viewBox="0 0 22 24" fill="none" xmlns="http://www.w3.org/2000/svg">
<path d="M3.83354 7.85491V12.4999L0.832758 9.75487L3.83354 7.85491ZM4.07973 14.825L0 11.08V22.8346L6.05938 17.4296L6.5202 17.0196L4.07973 14.825ZM13.878 3.87043V15.7547C13.1343 15.0898 12.6001 14.6249 12.4328 14.4847V14.4849C11.9771 14.0117 11.3178 13.7661 10.6468 13.8199C10.1357 13.8967 9.66694 14.1364 9.31669 14.4998L9.2538 14.5598L8.02313 15.6549V3.87001C8.69461 3.64346 9.22346 3.14014 9.46328 2.49993H12.4432H12.443C12.6791 3.14077 13.2068 3.64453 13.8781 3.87001L13.878 3.87043ZM13.3125 10.6651C13.3125 10.079 13.0687 9.51693 12.6345 9.10243C12.2003 8.68815 11.6116 8.45513 10.9977 8.45513C10.3837 8.45513 9.79501 8.68816 9.36085 9.10243C8.92669 9.51693 8.68285 10.079 8.68285 10.6651C8.68285 11.2513 8.9267 11.8133 9.36085 12.2278C9.795 12.6423 10.3837 12.8751 10.9977 12.8751C11.6116 12.8751 12.2003 12.6423 12.6345 12.2278C13.0687 11.8133 13.3125 11.2513 13.3125 10.6651ZM10.9977 9.96024C10.6963 9.96024 10.4249 10.1337 10.3101 10.3997C10.1953 10.6656 10.2601 10.9714 10.4738 11.1741C10.6874 11.3767 11.0082 11.4361 11.2859 11.3247C11.5637 11.2131 11.7435 10.9529 11.7414 10.6651C11.7383 10.275 11.4063 9.96024 10.9977 9.96024L10.9977 9.96024ZM15.9728 0.000456882H5.92854C5.63933 0.000456882 5.40483 0.224338 5.40483 0.500446V13.9601L6.45224 14.9001V3.25004C6.45224 2.83577 6.80387 2.50006 7.23779 2.50006C7.67148 2.50006 8.02335 2.16435 8.02335 1.75008C8.02335 1.3358 8.37497 1.00009 8.8089 1.00009H13.0927C13.2992 0.997414 13.4981 1.07353 13.6457 1.21147C13.7932 1.34942 13.8769 1.53802 13.8783 1.73512C13.8741 1.93668 13.955 2.13132 14.1027 2.27506C14.2505 2.41903 14.4527 2.50006 14.6638 2.50006C14.8703 2.5014 15.0676 2.58131 15.2123 2.72215C15.3568 2.86299 15.4365 3.05295 15.4337 3.25004V14.9246L16.4811 13.9597V0.499989C16.4811 0.229681 16.2562 0.00803411 15.9731 0L15.9728 0.000456882ZM18.0677 7.84028V12.5451L21.147 9.77504L18.0677 7.84028ZM17.832 14.8401L15.3811 17.1001C17.5021 19.0001 20.2829 21.465 21.9953 23V11.0654L17.832 14.8401ZM11.4219 15.6401C11.0604 15.3352 10.9819 15.2901 10.8458 15.3102C10.7097 15.3303 10.6258 15.4102 10.3955 15.6151L10.3326 15.6752L7.13289 18.5001C5.13768 20.2751 2.65012 22.5 0.989714 24H20.812C17.7324 21.2299 11.9875 16.1002 11.4219 15.6402L11.4219 15.6401Z" fill="#0E71C3"/>
</svg>
