<svg width="44" height="44" viewBox="0 0 44 44" fill="none" xmlns="http://www.w3.org/2000/svg">
<path d="M18.9167 32.4583C18.9127 29.8739 19.6518 27.3428 21.0458 25.1667H4.85834C4.24304 25.1669 3.63382 25.2884 3.06546 25.5241C2.49711 25.7598 1.98075 26.1052 1.54586 26.5405C1.11097 26.9757 0.766074 27.4924 0.530862 28.061C0.295651 28.6295 0.17473 29.2389 0.175004 29.8542V31.0563C0.175004 32.9146 0.837504 34.7146 2.04584 36.1292C5.30834 39.95 10.2792 41.8375 16.8333 41.8375C18.7729 41.8375 20.575 41.6708 22.2354 41.3375C20.0915 38.8767 18.9124 35.7221 18.9167 32.4583ZM16.8333 0.177086C18.2013 0.177086 19.5558 0.446521 20.8196 0.970007C22.0834 1.49349 23.2318 2.26078 24.199 3.22806C25.1663 4.19533 25.9336 5.34366 26.4571 6.60747C26.9806 7.87128 27.25 9.22582 27.25 10.5938C27.25 11.9617 26.9806 13.3162 26.4571 14.58C25.9336 15.8438 25.1663 16.9922 24.199 17.9594C23.2318 18.9267 22.0834 19.694 20.8196 20.2175C19.5558 20.741 18.2013 21.0104 16.8333 21.0104C14.0707 21.0104 11.4211 19.913 9.46764 17.9594C7.51414 16.0059 6.41667 13.3564 6.41667 10.5938C6.41667 7.83108 7.51414 5.18156 9.46764 3.22806C11.4211 1.27455 14.0707 0.177086 16.8333 0.177086ZM32.4583 21C35.4973 21 38.4118 22.2072 40.5606 24.3561C42.7095 26.5049 43.9167 29.4194 43.9167 32.4583C43.9167 35.4973 42.7095 38.4117 40.5606 40.5606C38.4118 42.7095 35.4973 43.9167 32.4583 43.9167C29.4194 43.9167 26.5049 42.7095 24.3561 40.5606C22.2072 38.4117 21 35.4973 21 32.4583C21 29.4194 22.2072 26.5049 24.3561 24.3561C26.5049 22.2072 29.4194 21 32.4583 21ZM36.625 32.4583H32.4583V27.25C32.4583 26.9737 32.3486 26.7088 32.1532 26.5134C31.9579 26.3181 31.6929 26.2083 31.4167 26.2083C31.1404 26.2083 30.8755 26.3181 30.6801 26.5134C30.4848 26.7088 30.375 26.9737 30.375 27.25V33.5C30.375 33.7763 30.4848 34.0412 30.6801 34.2366C30.8755 34.4319 31.1404 34.5417 31.4167 34.5417H36.625C36.9013 34.5417 37.1662 34.4319 37.3616 34.2366C37.5569 34.0412 37.6667 33.7763 37.6667 33.5C37.6667 33.2237 37.5569 32.9588 37.3616 32.7634C37.1662 32.5681 36.9013 32.4583 36.625 32.4583Z" fill="#76BC21"/>
</svg>
