<svg width="27" height="27" viewBox="0 0 27 27" fill="none" xmlns="http://www.w3.org/2000/svg">
<path d="M13.5 13.5C12.2625 13.5 11.2031 13.0594 10.3219 12.1781C9.44063 11.2969 9 10.2375 9 9C9 7.7625 9.44063 6.70312 10.3219 5.82188C11.2031 4.94063 12.2625 4.5 13.5 4.5C14.7375 4.5 15.7969 4.94063 16.6781 5.82188C17.5594 6.70312 18 7.7625 18 9C18 10.2375 17.5594 11.2969 16.6781 12.1781C15.7969 13.0594 14.7375 13.5 13.5 13.5ZM4.5 22.5V19.35C4.5 18.7125 4.66425 18.1264 4.99275 17.5916C5.32125 17.0569 5.757 16.6492 6.3 16.3687C7.4625 15.7875 8.64375 15.3514 9.84375 15.0604C11.0438 14.7694 12.2625 14.6242 13.5 14.625C14.7375 14.625 15.9563 14.7705 17.1562 15.0615C18.3562 15.3525 19.5375 15.7882 20.7 16.3687C21.2437 16.65 21.6799 17.058 22.0084 17.5927C22.3369 18.1275 22.5007 18.7132 22.5 19.35V22.5H4.5Z" fill="#217BBC"/>
</svg>
