<svg width="19" height="19" viewBox="0 0 19 19" fill="none" xmlns="http://www.w3.org/2000/svg">
<path d="M9.49996 9.49999C8.62913 9.49999 7.88364 9.18992 7.2635 8.56978C6.64336 7.94964 6.33329 7.20416 6.33329 6.33332C6.33329 5.46249 6.64336 4.717 7.2635 4.09686C7.88364 3.47673 8.62913 3.16666 9.49996 3.16666C10.3708 3.16666 11.1163 3.47673 11.7364 4.09686C12.3566 4.717 12.6666 5.46249 12.6666 6.33332C12.6666 7.20416 12.3566 7.94964 11.7364 8.56978C11.1163 9.18992 10.3708 9.49999 9.49996 9.49999ZM3.16663 15.8333V13.6167C3.16663 13.168 3.28221 12.7556 3.51338 12.3793C3.74454 12.003 4.05118 11.7161 4.43329 11.5187C5.25135 11.1097 6.0826 10.8028 6.92704 10.598C7.77149 10.3933 8.62913 10.2911 9.49996 10.2917C10.3708 10.2917 11.2284 10.394 12.0729 10.5988C12.9173 10.8036 13.7486 11.1102 14.5666 11.5187C14.9493 11.7167 15.2562 12.0038 15.4873 12.3801C15.7185 12.7564 15.8338 13.1686 15.8333 13.6167V15.8333H3.16663Z" fill="#1C1C1C"/>
</svg>
