<svg width="66" height="65" viewBox="0 0 66 65" fill="none" xmlns="http://www.w3.org/2000/svg">
<path d="M32.9998 21.9594C29.9748 21.9594 27.3852 20.8986 25.231 18.7771C23.0768 16.6556 21.9998 14.1052 21.9998 11.1261C21.9998 8.14689 23.0768 5.59654 25.231 3.47502C27.3852 1.35349 29.9748 0.292725 32.9998 0.292725C36.0248 0.292725 38.6143 1.35349 40.7685 3.47502C42.9227 5.59654 43.9998 8.14689 43.9998 11.1261C43.9998 14.1052 42.9227 16.6556 40.7685 18.7771C38.6143 20.8986 36.0248 21.9594 32.9998 21.9594ZM10.9998 43.6261V36.0427C10.9998 34.508 11.4013 33.097 12.2043 31.8096C13.0073 30.5222 14.0724 29.5409 15.3998 28.8656C18.2414 27.4663 21.1289 26.4164 24.0623 25.7159C26.9956 25.0153 29.9748 24.6659 32.9998 24.6677C36.0248 24.6677 39.0039 25.018 41.9373 25.7186C44.8706 26.4191 47.7581 27.4681 50.5998 28.8656C51.9289 29.5427 52.995 30.5249 53.798 31.8123C54.601 33.0997 55.0016 34.5098 54.9998 36.0427V43.6261H10.9998Z" fill="white"/>
</svg>
