<svg width="10" height="14" viewBox="0 0 10 14" fill="none" xmlns="http://www.w3.org/2000/svg">
<g clip-path="url(#clip0_0_51)">
<path d="M5.96158 4.68627H1.85902C1.587 4.68627 1.32612 4.81022 1.13378 5.03085C0.941432 5.25148 0.833374 5.55072 0.833374 5.86274V8.21568C0.833374 8.5277 0.941432 8.82694 1.13378 9.04757C1.32612 9.2682 1.587 9.39215 1.85902 9.39215H2.37184V11.7451C2.37184 11.9011 2.42586 12.0507 2.52204 12.161C2.61821 12.2714 2.74865 12.3333 2.88466 12.3333H3.9103C4.04631 12.3333 4.17674 12.2714 4.27292 12.161C4.36909 12.0507 4.42312 11.9011 4.42312 11.7451V9.39215H5.96158L8.52568 11.7451V2.33333L5.96158 4.68627ZM10.8334 7.03921C10.8334 8.04509 10.3411 8.95686 9.55132 9.39215V4.68627C10.3359 5.12745 10.8334 6.03921 10.8334 7.03921Z" fill="#1C1C1C"/>
</g>
<defs>
<clipPath id="clip0_0_51">
<rect width="10" height="14" fill="white"/>
</clipPath>
</defs>
</svg>
