<svg width="60" height="60" viewBox="0 0 60 60" fill="none" xmlns="http://www.w3.org/2000/svg">
<g clip-path="url(#clip0_14_583)">
<path fill-rule="evenodd" clip-rule="evenodd" d="M52.5 50C53.1372 50.0007 53.7501 50.2447 54.2134 50.6821C54.6768 51.1195 54.9556 51.7174 54.9929 52.3535C55.0303 52.9896 54.8233 53.6159 54.4143 54.1046C54.0054 54.5932 53.4252 54.9072 52.7925 54.9825L52.5 55H7.5C6.8628 54.9993 6.24992 54.7553 5.78658 54.3179C5.32324 53.8805 5.04441 53.2826 5.00707 52.6465C4.96972 52.0104 5.17668 51.3841 5.58566 50.8954C5.99463 50.4068 6.57476 50.0928 7.2075 50.0175L7.5 50H52.5ZM18.155 9.43C18.574 9.31784 19.0118 9.29414 19.4405 9.36043C19.8692 9.42671 20.2794 9.58152 20.645 9.815L20.95 10.0375L36.41 22.765L45.99 21.035C47.6621 20.733 49.3838 20.8665 50.9893 21.4226C52.5949 21.9786 54.0303 22.9386 55.1575 24.21C56.3 25.4975 56.785 27.2025 56.22 28.8725C55.7913 30.1402 55.0754 31.2916 54.1283 32.237C53.1812 33.1824 52.0285 33.8961 50.76 34.3225L50.2425 34.48L12.55 44.58C12.074 44.7074 11.5725 44.7045 11.0979 44.5717C10.6234 44.4389 10.1932 44.181 9.8525 43.825L9.6375 43.57L1.695 32.955C1.46315 32.6455 1.30549 32.2869 1.23417 31.9068C1.16285 31.5268 1.17978 31.1354 1.28365 30.7629C1.38753 30.3904 1.57556 30.0468 1.83327 29.7584C2.09097 29.4701 2.41145 29.2449 2.77 29.1L3.065 29.0025L8.74 27.4825C9.1805 27.3644 9.64152 27.3442 10.0907 27.4232C10.5398 27.5023 10.9663 27.6786 11.34 27.94L11.615 28.1525L13.605 29.9025L19.5925 27.5625L9.925 15.28C9.68202 14.9713 9.51444 14.6101 9.43556 14.2253C9.35669 13.8404 9.3687 13.4425 9.47065 13.0631C9.5726 12.6837 9.76167 12.3333 10.0228 12.0398C10.284 11.7463 10.61 11.5178 10.975 11.3725L11.2575 11.28L18.155 9.43ZM18.515 14.51L16.1775 15.135L25.585 27.095C26.5675 28.3425 26.16 30.145 24.8025 30.875L24.52 31.0075L14.02 35.1075C13.6383 35.2567 13.2261 35.3108 12.8188 35.2651C12.4116 35.2193 12.0216 35.0752 11.6825 34.845L11.435 34.6525L9.0675 32.57L7.89 32.8875L12.7275 39.355L48.95 29.65C50.06 29.3525 50.9625 28.5575 51.4 27.505C50.8894 26.9357 50.2527 26.4938 49.5408 26.2147C48.8288 25.9356 48.0614 25.8269 47.3 25.8975L46.8825 25.955L36.1725 27.89C35.5506 28.0024 34.9093 27.8775 34.375 27.54L34.12 27.3525L18.52 14.51H18.515Z" fill="white"/>
</g>
<defs>
<clipPath id="clip0_14_583">
<rect width="60" height="60" fill="white"/>
</clipPath>
</defs>
</svg>
