<svg width="26" height="26" viewBox="0 0 26 26" fill="none" xmlns="http://www.w3.org/2000/svg">
<path d="M18.6518 4.43601L21.564 7.34688M20.5245 1.87163L12.6499 9.74626C12.243 10.1526 11.9655 10.6702 11.8524 11.234L11.125 14.875L14.766 14.1463C15.3297 14.0335 15.8467 13.7571 16.2537 13.3501L24.1284 5.47551C24.365 5.23887 24.5527 4.95795 24.6808 4.64877C24.8088 4.33959 24.8748 4.00822 24.8748 3.67357C24.8748 3.33892 24.8088 3.00754 24.6808 2.69837C24.5527 2.38919 24.365 2.10826 24.1284 1.87163C23.8917 1.635 23.6108 1.44729 23.3016 1.31922C22.9925 1.19116 22.6611 1.12524 22.3264 1.12524C21.9918 1.12524 21.6604 1.19116 21.3512 1.31922C21.0421 1.44729 20.7611 1.635 20.5245 1.87163Z" stroke="#FFA800" stroke-width="2" stroke-linecap="round" stroke-linejoin="round"/>
<path d="M22.125 17.625V21.75C22.125 22.4793 21.8353 23.1788 21.3195 23.6945C20.8038 24.2103 20.1043 24.5 19.375 24.5H4.25C3.52065 24.5 2.82118 24.2103 2.30546 23.6945C1.78973 23.1788 1.5 22.4793 1.5 21.75V6.625C1.5 5.89565 1.78973 5.19618 2.30546 4.68046C2.82118 4.16473 3.52065 3.875 4.25 3.875H8.375" stroke="#FFA800" stroke-width="2" stroke-linecap="round" stroke-linejoin="round"/>
</svg>
