<svg width="106" height="106" viewBox="0 0 106 106" fill="none" xmlns="http://www.w3.org/2000/svg">
<path d="M32.3301 46.64L37.0118 41.9583L32.3301 37.2766L37.0118 32.595L46.3751 41.9583L37.0118 51.3216L32.3301 46.64ZM19.8751 39.75C20.0076 39.75 20.0959 39.7941 20.2284 39.7941C22.8629 33.2593 27.3906 27.661 33.23 23.7182C39.0695 19.7754 45.9542 17.668 53.0001 17.6666C62.6726 17.6666 71.3734 21.5533 77.7776 27.825C78.4401 25.175 79.7651 22.1275 81.3551 19.1683C73.4053 12.4793 63.3454 8.81835 52.9559 8.8333C31.4026 8.8333 13.4709 24.3358 9.62842 44.785C12.1018 41.6933 15.8559 39.75 19.8751 39.75ZM92.7501 46.375C90.8951 46.375 89.1284 45.9775 87.4943 45.4033C88.0243 47.8325 88.3334 50.3941 88.3334 53C88.3334 72.5216 72.5218 88.3333 53.0001 88.3333C38.1601 88.3333 25.4843 79.1908 20.2284 66.2058C20.0959 66.2058 20.0076 66.25 19.8751 66.25C17.5784 66.25 15.2818 65.6316 13.2501 64.4833C11.8368 63.6883 10.6443 62.6283 9.62842 61.3916C13.5593 81.7525 31.4026 97.1666 52.9118 97.1666C77.3801 97.1666 97.1668 77.38 97.1668 53C97.1668 50.5708 96.9018 48.1858 96.5484 45.845C95.3092 46.1786 94.0333 46.3566 92.7501 46.375ZM92.7501 13.25C92.7501 13.25 83.9168 26.0583 83.9168 30.9166C83.9168 35.775 87.8918 39.75 92.7501 39.75C97.6084 39.75 101.583 35.775 101.583 30.9166C101.583 26.0583 92.7501 13.25 92.7501 13.25ZM68.9884 32.595L59.6251 41.9583L68.9884 51.3216L73.6701 46.64L68.9884 41.9583L73.6701 37.2766L68.9884 32.595ZM37.8068 75.0833C40.8543 69.8275 46.5076 66.25 53.0001 66.25C59.4926 66.25 65.1459 69.8275 68.1934 75.0833H75.6134C72.0801 66.0291 63.2909 59.625 53.0001 59.625C49.1576 59.625 45.4918 60.5083 42.2676 62.1425L26.4559 53C26.4559 50.7033 25.3076 48.495 23.1876 47.3025C20.0076 45.4916 15.9884 46.5516 14.1334 49.7316C12.3226 52.9116 13.3826 56.9308 16.5626 58.7858C18.6826 60.0225 21.2001 59.89 23.1434 58.7858L36.2609 66.3825C33.7434 68.7233 31.7118 71.7266 30.3868 75.0833H37.8068Z" fill="white"/>
</svg>
