<svg width="30" height="29" viewBox="0 0 30 29" fill="none" xmlns="http://www.w3.org/2000/svg">
<path d="M30 22.5V24.375H20.5371L23.6279 27.4658L22.3096 28.7842L16.9629 23.4375L22.3096 18.0908L23.6279 19.4092L20.5371 22.5H30ZM18.9258 16.1572L17.6367 17.5195C16.7676 16.6992 15.7861 16.0742 14.6924 15.6445C13.5986 15.2148 12.4512 15 11.25 15C10.3906 15 9.56055 15.1123 8.75977 15.3369C7.95898 15.5615 7.21191 15.874 6.51855 16.2744C5.8252 16.6748 5.19531 17.1631 4.62891 17.7393C4.0625 18.3154 3.57422 18.9502 3.16406 19.6436C2.75391 20.3369 2.43652 21.084 2.21191 21.8848C1.9873 22.6855 1.875 23.5156 1.875 24.375H0C0 23.2324 0.170898 22.1143 0.512695 21.0205C0.854492 19.9268 1.34766 18.916 1.99219 17.9883C2.63672 17.0605 3.40332 16.2354 4.29199 15.5127C5.18066 14.79 6.17188 14.2383 7.26562 13.8574C6.71875 13.5059 6.23047 13.1006 5.80078 12.6416C5.37109 12.1826 5 11.6797 4.6875 11.1328C4.375 10.5859 4.14551 10.0098 3.99902 9.4043C3.85254 8.79883 3.76953 8.16406 3.75 7.5C3.75 6.46484 3.94531 5.49316 4.33594 4.58496C4.72656 3.67676 5.25879 2.88086 5.93262 2.19727C6.60645 1.51367 7.40234 0.976562 8.32031 0.585938C9.23828 0.195313 10.2148 0 11.25 0C12.2852 0 13.2568 0.195313 14.165 0.585938C15.0732 0.976562 15.8691 1.50879 16.5527 2.18262C17.2363 2.85645 17.7734 3.65234 18.1641 4.57031C18.5547 5.48828 18.75 6.46484 18.75 7.5C18.75 8.83789 18.4424 10.0488 17.8271 11.1328C17.2119 12.2168 16.3477 13.125 15.2344 13.8574C15.918 14.1113 16.5674 14.4336 17.1826 14.8242C17.7979 15.2148 18.3789 15.6592 18.9258 16.1572ZM5.625 7.5C5.625 8.28125 5.77148 9.00879 6.06445 9.68262C6.35742 10.3564 6.75781 10.9521 7.26562 11.4697C7.77344 11.9873 8.36914 12.3926 9.05273 12.6855C9.73633 12.9785 10.4688 13.125 11.25 13.125C12.0215 13.125 12.749 12.9785 13.4326 12.6855C14.1162 12.3926 14.7119 11.9922 15.2197 11.4844C15.7275 10.9766 16.1328 10.3809 16.4355 9.69727C16.7383 9.01367 16.8848 8.28125 16.875 7.5C16.875 6.72852 16.7285 6.00098 16.4355 5.31738C16.1426 4.63379 15.7422 4.03809 15.2344 3.53027C14.7266 3.02246 14.126 2.61719 13.4326 2.31445C12.7393 2.01172 12.0117 1.86523 11.25 1.875C10.4688 1.875 9.74121 2.02148 9.06738 2.31445C8.39355 2.60742 7.79785 3.00781 7.28027 3.51562C6.7627 4.02344 6.35742 4.62402 6.06445 5.31738C5.77148 6.01074 5.625 6.73828 5.625 7.5Z" fill="black"/>
</svg>
