<svg width="46" height="46" viewBox="0 0 46 46" fill="none" xmlns="http://www.w3.org/2000/svg">
<path d="M20.2143 33.6071C20.2143 37.2304 21.6518 40.5161 23.9893 42.9268C22.2572 43.2536 20.3947 43.4286 18.4286 43.4286C8.0893 43.4286 0.571442 38.8446 0.571442 32.2054V30.9286C0.571442 29.5078 1.13585 28.1452 2.14051 27.1405C3.14517 26.1358 4.50778 25.5714 5.92858 25.5714H22.8929C21.1502 27.8876 20.2099 30.7086 20.2143 33.6071ZM18.4286 0.57143C19.8356 0.57143 21.2288 0.848563 22.5288 1.38701C23.8287 1.92545 25.0098 2.71466 26.0047 3.70957C26.9996 4.70448 27.7889 5.88562 28.3273 7.18554C28.8657 8.48545 29.1429 9.8787 29.1429 11.2857C29.1429 12.6927 28.8657 14.086 28.3273 15.3859C27.7889 16.6858 26.9996 17.8669 26.0047 18.8619C25.0098 19.8568 23.8287 20.646 22.5288 21.1844C21.2288 21.7229 19.8356 22 18.4286 22C15.587 22 12.8618 20.8712 10.8524 18.8619C8.84312 16.8525 7.7143 14.1273 7.7143 11.2857C7.7143 8.44411 8.84312 5.71889 10.8524 3.70957C12.8618 1.70025 15.587 0.57143 18.4286 0.57143ZM45.2143 33.6071C45.2143 36.6856 43.9914 39.6379 41.8146 41.8146C39.6379 43.9914 36.6856 45.2143 33.6072 45.2143C30.5287 45.2143 27.5764 43.9914 25.3997 41.8146C23.2229 39.6379 22 36.6856 22 33.6071C22 30.5287 23.2229 27.5764 25.3997 25.3997C27.5764 23.2229 30.5287 22 33.6072 22C36.6856 22 39.6379 23.2229 41.8146 25.3997C43.9914 27.5764 45.2143 30.5287 45.2143 33.6071ZM30.6679 28.8821C30.8355 28.7145 30.9297 28.4871 30.9297 28.25C30.9297 28.0129 30.8355 27.7855 30.6679 27.6179C30.5002 27.4502 30.2728 27.356 30.0357 27.356C29.7986 27.356 29.5712 27.4502 29.4036 27.6179L25.8322 31.1893C25.749 31.2722 25.683 31.3708 25.638 31.4792C25.593 31.5877 25.5698 31.704 25.5698 31.8214C25.5698 31.9389 25.593 32.0552 25.638 32.1636C25.683 32.2721 25.749 32.3706 25.8322 32.4536L29.4036 36.025C29.4866 36.108 29.5851 36.1739 29.6936 36.2188C29.8021 36.2637 29.9183 36.2868 30.0357 36.2868C30.1531 36.2868 30.2694 36.2637 30.3778 36.2188C30.4863 36.1739 30.5849 36.108 30.6679 36.025C30.7509 35.942 30.8167 35.8434 30.8617 35.735C30.9066 35.6265 30.9297 35.5103 30.9297 35.3929C30.9297 35.2755 30.9066 35.1592 30.8617 35.0507C30.8167 34.9423 30.7509 34.8437 30.6679 34.7607L28.6197 32.7143H33.1607C34.4631 32.7143 35.7122 33.2317 36.6331 34.1526C37.5541 35.0735 38.0714 36.3226 38.0714 37.625V38.0714C38.0714 38.3082 38.1655 38.5353 38.333 38.7028C38.5004 38.8702 38.7275 38.9643 38.9643 38.9643C39.2011 38.9643 39.4282 38.8702 39.5956 38.7028C39.7631 38.5353 39.8572 38.3082 39.8572 38.0714V37.625C39.8572 35.849 39.1516 34.1457 37.8958 32.8899C36.64 31.6341 34.9367 30.9286 33.1607 30.9286H28.6197L30.6679 28.8821Z" fill="#76BC21"/>
</svg>
