<svg width="45" height="45" viewBox="0 0 45 45" fill="none" xmlns="http://www.w3.org/2000/svg">
<path d="M18.699 28.9247C19.0838 27.7923 19.6201 26.7118 20.2946 25.7097H5.05901C3.71707 25.7103 2.4303 26.2184 1.48161 27.1223C0.53293 28.0263 -1.32655e-07 29.252 0 30.5301V31.769C0 33.6809 0.715643 35.5327 2.0209 36.9881C5.54511 40.919 10.9147 42.8609 17.9946 42.8609C19.3449 42.8609 20.6344 42.788 21.8586 42.6466C20.974 41.7314 20.2217 40.7079 19.6217 39.603C19.0951 39.6309 18.5527 39.6459 17.9946 39.6459C11.8329 39.6459 7.40848 38.0448 4.58867 34.9005C3.80455 34.0272 3.3736 32.9159 3.37342 31.7668V30.5301C3.37342 30.1038 3.55125 29.6949 3.86778 29.3934C4.18431 29.092 4.61362 28.9226 5.06126 28.9226H18.699V28.9247ZM17.9946 0C19.4723 -2.09712e-08 20.9355 0.277199 22.3006 0.81577C23.6658 1.35434 24.9063 2.14374 25.9511 3.13889C26.996 4.13404 27.8248 5.31545 28.3903 6.61568C28.9558 7.91591 29.2469 9.30948 29.2469 10.7168C29.2469 12.1242 28.9558 13.5178 28.3903 14.818C27.8248 16.1182 26.996 17.2996 25.9511 18.2948C24.9063 19.2899 23.6658 20.0793 22.3006 20.6179C20.9355 21.1565 19.4723 21.4337 17.9946 21.4337C15.0103 21.4337 12.1483 20.3046 10.0381 18.2948C7.92785 16.285 6.74235 13.5591 6.74235 10.7168C6.74235 7.87456 7.92785 5.14869 10.0381 3.13889C12.1483 1.12909 15.0103 0 17.9946 0ZM17.9946 3.21505C16.9602 3.21505 15.936 3.40909 14.9804 3.78609C14.0247 4.16309 13.1564 4.71567 12.425 5.41227C11.6936 6.10888 11.1134 6.93587 10.7176 7.84603C10.3218 8.75619 10.118 9.73169 10.118 10.7168C10.118 11.702 10.3218 12.6775 10.7176 13.5876C11.1134 14.4978 11.6936 15.3248 12.425 16.0214C13.1564 16.718 14.0247 17.2706 14.9804 17.6476C15.936 18.0246 16.9602 18.2186 17.9946 18.2186C20.0836 18.2186 22.087 17.4283 23.5642 16.0214C25.0413 14.6145 25.8712 12.7064 25.8712 10.7168C25.8712 8.72724 25.0413 6.81913 23.5642 5.41227C22.087 4.00542 20.0836 3.21505 17.9946 3.21505ZM45 33.2115C45 36.338 43.6959 39.3364 41.3747 41.5472C39.0535 43.758 35.9052 45 32.6225 45C29.3398 45 26.1916 43.758 23.8703 41.5472C21.5491 39.3364 20.2451 36.338 20.2451 33.2115C20.2451 30.085 21.5491 27.0865 23.8703 24.8757C26.1916 22.665 29.3398 21.423 32.6225 21.423C35.9052 21.423 39.0535 22.665 41.3747 24.8757C43.6959 27.0865 45 30.085 45 33.2115ZM23.6207 33.2115C23.6207 35.4853 24.5691 37.666 26.2573 39.2738C27.9455 40.8817 30.2351 41.7849 32.6225 41.7849C35.01 41.7849 37.2996 40.8817 38.9878 39.2738C40.6759 37.666 41.6243 35.4853 41.6243 33.2115C41.6243 30.9377 40.6759 28.757 38.9878 27.1491C37.2996 25.5413 35.01 24.638 32.6225 24.638C30.2351 24.638 27.9455 25.5413 26.2573 27.1491C24.5691 28.757 23.6207 30.9377 23.6207 33.2115ZM34.873 28.9247C34.873 29.4932 34.6359 30.0384 34.2138 30.4403C33.7918 30.8423 33.2194 31.0681 32.6225 31.0681C32.0257 31.0681 31.4533 30.8423 31.0312 30.4403C30.6092 30.0384 30.3721 29.4932 30.3721 28.9247C30.3721 28.3563 30.6092 27.8111 31.0312 27.4092C31.4533 27.0072 32.0257 26.7814 32.6225 26.7814C33.2194 26.7814 33.7918 27.0072 34.2138 27.4092C34.6359 27.8111 34.873 28.3563 34.873 28.9247ZM34.3104 34.2832C34.3104 33.8568 34.1325 33.4479 33.816 33.1465C33.4995 32.845 33.0702 32.6756 32.6225 32.6756C32.1749 32.6756 31.7456 32.845 31.429 33.1465C31.1125 33.4479 30.9347 33.8568 30.9347 34.2832V38.0341C30.9347 38.4604 31.1125 38.8693 31.429 39.1707C31.7456 39.4722 32.1749 39.6416 32.6225 39.6416C33.0702 39.6416 33.4995 39.4722 33.816 39.1707C34.1325 38.8693 34.3104 38.4604 34.3104 38.0341V34.2832Z" fill="#45C380"/>
</svg>
