<svg width="26" height="26" viewBox="0 0 26 26" fill="none" xmlns="http://www.w3.org/2000/svg">
<path d="M4.5 6C4.5 4.4087 5.13214 2.88258 6.25736 1.75736C7.38258 0.632141 8.9087 0 10.5 0C12.0913 0 13.6174 0.632141 14.7426 1.75736C15.8679 2.88258 16.5 4.4087 16.5 6C16.5 7.5913 15.8679 9.11742 14.7426 10.2426C13.6174 11.3679 12.0913 12 10.5 12C8.9087 12 7.38258 11.3679 6.25736 10.2426C5.13214 9.11742 4.5 7.5913 4.5 6ZM10.5 1.5C9.30653 1.5 8.16193 1.97411 7.31802 2.81802C6.47411 3.66193 6 4.80653 6 6C6 7.19347 6.47411 8.33807 7.31802 9.18198C8.16193 10.0259 9.30653 10.5 10.5 10.5C11.6935 10.5 12.8381 10.0259 13.682 9.18198C14.5259 8.33807 15 7.19347 15 6C15 4.80653 14.5259 3.66193 13.682 2.81802C12.8381 1.97411 11.6935 1.5 10.5 1.5ZM0 16.5C0 14.8305 1.3545 13.5 3.0135 13.5H12.3855C12.0035 13.9627 11.673 14.4657 11.4 15H3.0135C2.172 15 1.5 15.6705 1.5 16.5C1.5 18.4635 2.433 19.926 4.0095 20.9295C5.6145 21.954 7.8975 22.5 10.5 22.5C10.8 22.5 11.097 22.4925 11.388 22.4775C11.6475 22.9905 11.9595 23.4705 12.315 23.9145C11.7225 23.9715 11.115 24 10.5 24C7.7175 24 5.1255 23.421 3.2025 22.1955C1.2495 20.9505 0 19.035 0 16.5ZM25.5 18.75C25.5 20.5402 24.7888 22.2571 23.523 23.523C22.2571 24.7888 20.5402 25.5 18.75 25.5C16.9598 25.5 15.2429 24.7888 13.977 23.523C12.7112 22.2571 12 20.5402 12 18.75C12 16.9598 12.7112 15.2429 13.977 13.977C15.2429 12.7112 16.9598 12 18.75 12C20.5402 12 22.2571 12.7112 23.523 13.977C24.7888 15.2429 25.5 16.9598 25.5 18.75ZM18.75 15C18.5511 15 18.3603 15.079 18.2197 15.2197C18.079 15.3603 18 15.5511 18 15.75V18.75C18 18.9489 18.079 19.1397 18.2197 19.2803C18.3603 19.421 18.5511 19.5 18.75 19.5H21C21.1989 19.5 21.3897 19.421 21.5303 19.2803C21.671 19.1397 21.75 18.9489 21.75 18.75C21.75 18.5511 21.671 18.3603 21.5303 18.2197C21.3897 18.079 21.1989 18 21 18H19.5V15.75C19.5 15.5511 19.421 15.3603 19.2803 15.2197C19.1397 15.079 18.9489 15 18.75 15Z" fill="black"/>
</svg>
