<svg width="33" height="33" viewBox="0 0 33 33" fill="none" xmlns="http://www.w3.org/2000/svg">
<path d="M22.6518 7.43601L25.564 10.3469M24.5245 4.87163L16.6499 12.7463C16.243 13.1526 15.9655 13.6702 15.8524 14.234L15.125 17.875L18.766 17.1463C19.3297 17.0335 19.8467 16.7571 20.2537 16.3501L28.1284 8.47551C28.365 8.23887 28.5527 7.95795 28.6808 7.64877C28.8088 7.33959 28.8748 7.00822 28.8748 6.67357C28.8748 6.33892 28.8088 6.00754 28.6808 5.69837C28.5527 5.38919 28.365 5.10826 28.1284 4.87163C27.8917 4.635 27.6108 4.44729 27.3016 4.31922C26.9925 4.19116 26.6611 4.12524 26.3264 4.12524C25.9918 4.12524 25.6604 4.19116 25.3512 4.31922C25.0421 4.44729 24.7611 4.635 24.5245 4.87163Z" stroke="#FFA800" stroke-width="2" stroke-linecap="round" stroke-linejoin="round"/>
<path d="M26.125 20.625V24.75C26.125 25.4793 25.8353 26.1788 25.3195 26.6945C24.8038 27.2103 24.1043 27.5 23.375 27.5H8.25C7.52065 27.5 6.82118 27.2103 6.30546 26.6945C5.78973 26.1788 5.5 25.4793 5.5 24.75V9.625C5.5 8.89565 5.78973 8.19618 6.30546 7.68046C6.82118 7.16473 7.52065 6.875 8.25 6.875H12.375" stroke="#FFA800" stroke-width="2" stroke-linecap="round" stroke-linejoin="round"/>
</svg>
