<svg width="30" height="30" viewBox="0 0 30 30" fill="none" xmlns="http://www.w3.org/2000/svg">
<path d="M11.1125 24.7938C12.0586 25.3379 13.1818 25.485 14.2362 25.2027C15.2905 24.9203 16.1899 24.2317 16.7375 23.2875L21.9625 14.25C22.1104 13.994 22.2064 13.7113 22.245 13.4181C22.2835 13.125 22.264 12.8271 22.1874 12.5415C22.1107 12.2559 21.9786 11.9882 21.7984 11.7538C21.6183 11.5193 21.3937 11.3226 21.1375 11.175L19.575 10.275M10.9062 24.675C10.0466 24.1771 9.4197 23.3584 9.16307 22.3988C8.90645 21.4391 9.04111 20.4168 9.5375 19.5563L13.4937 12.6813C13.7905 12.1647 13.8703 11.5516 13.7156 10.9763C13.5609 10.4011 13.1845 9.91062 12.6687 9.61251L9.79375 7.95626C9.53877 7.80741 9.25687 7.7105 8.96427 7.6711C8.67167 7.63171 8.37417 7.65061 8.08891 7.72672C7.80365 7.80282 7.53627 7.93463 7.30218 8.11455C7.0681 8.29447 6.87194 8.51893 6.725 8.77501L3.51875 14.375C2.82975 15.5766 2.64482 17.0023 3.00442 18.3399C3.36401 19.6776 4.23886 20.8183 5.4375 21.5125L7.6625 22.8L10.9062 24.675Z" stroke="black" stroke-linecap="round" stroke-linejoin="round"/>
<path d="M25.125 8.63751C25.5943 8.90695 26.0057 9.26634 26.3358 9.6951C26.666 10.1239 26.9082 10.6135 27.0487 11.1361C27.1892 11.6586 27.2252 12.2038 27.1547 12.7403C27.0841 13.2768 26.9083 13.7941 26.6375 14.2625L22.95 20.625C22.6507 21.1412 22.1591 21.5178 21.5828 21.6724C21.0065 21.827 20.3925 21.747 19.875 21.45L18.3125 20.5438M11.3562 8.87501L12.2812 7.27502C12.9779 6.07044 14.1243 5.19172 15.4685 4.83194C16.8127 4.47216 18.2448 4.66075 19.45 5.35626L21.675 6.64377L24.9187 8.51877C24.0575 8.0229 23.0346 7.88919 22.0748 8.14701C21.115 8.40483 20.2969 9.03308 19.8 9.89377L14.375 19.25C14.0769 19.7657 13.5864 20.1422 13.0112 20.2969C12.4359 20.4515 11.8228 20.3717 11.3062 20.075L9.73749 19.1688" stroke="black" stroke-linecap="round" stroke-linejoin="round"/>
</svg>
