<svg width="32" height="32" viewBox="0 0 32 32" fill="none" xmlns="http://www.w3.org/2000/svg">
<path d="M16 16C14.5333 16 13.2778 15.4778 12.2333 14.4333C11.1889 13.3889 10.6667 12.1333 10.6667 10.6667C10.6667 9.2 11.1889 7.94444 12.2333 6.9C13.2778 5.85555 14.5333 5.33333 16 5.33333C17.4667 5.33333 18.7222 5.85555 19.7667 6.9C20.8111 7.94444 21.3333 9.2 21.3333 10.6667C21.3333 12.1333 20.8111 13.3889 19.7667 14.4333C18.7222 15.4778 17.4667 16 16 16ZM5.33333 26.6667V22.9333C5.33333 22.1778 5.528 21.4831 5.91733 20.8493C6.30667 20.2156 6.82311 19.7324 7.46667 19.4C8.84444 18.7111 10.2444 18.1942 11.6667 17.8493C13.0889 17.5044 14.5333 17.3324 16 17.3333C17.4667 17.3333 18.9111 17.5058 20.3333 17.8507C21.7556 18.1955 23.1556 18.712 24.5333 19.4C25.1778 19.7333 25.6947 20.2169 26.084 20.8507C26.4733 21.4844 26.6676 22.1787 26.6667 22.9333V26.6667H5.33333Z" fill="#1C1C1C"/>
</svg>
