<svg width="106" height="92" viewBox="0 0 106 92" fill="none" xmlns="http://www.w3.org/2000/svg">
<path d="M88.3335 23C90.6762 23 92.923 23.8078 94.5796 25.2456C96.2362 26.6833 97.1668 28.6334 97.1668 30.6667V69C97.1668 71.0334 96.2362 72.9834 94.5796 74.4212C92.923 75.859 90.6762 76.6667 88.3335 76.6667H17.6668C15.3241 76.6667 13.0773 75.859 11.4207 74.4212C9.76415 72.9834 8.8335 71.0334 8.8335 69V23C8.8335 20.9667 9.76415 19.0167 11.4207 17.5789C13.0773 16.1411 15.3241 15.3334 17.6668 15.3334H44.1668L53.0002 23H88.3335ZM47.4793 49.8334H61.8335V65.1667H70.6668V49.8334H85.021L66.2502 33.5417" fill="black"/>
</svg>
