<svg width="98" height="97" viewBox="0 0 98 97" fill="none" xmlns="http://www.w3.org/2000/svg">
<path d="M81.6665 24.25C83.8324 24.25 85.9097 25.1016 87.4412 26.6176C88.9728 28.1335 89.8332 30.1895 89.8332 32.3333V72.75C89.8332 74.8938 88.9728 76.9499 87.4412 78.4658C85.9097 79.9817 83.8324 80.8333 81.6665 80.8333H16.3332C14.1672 80.8333 12.09 79.9817 10.5585 78.4658C9.02692 76.9499 8.1665 74.8938 8.1665 72.75V24.25C8.1665 22.1062 9.02692 20.0501 10.5585 18.5342C12.09 17.0183 14.1672 16.1667 16.3332 16.1667H40.8332L48.9998 24.25H81.6665ZM43.8957 52.5417H57.1665V68.7083H65.3332V52.5417H78.604L61.2498 35.3646" fill="#6D6D6D"/>
</svg>
