<svg width="106" height="106" viewBox="0 0 106 106" fill="none" xmlns="http://www.w3.org/2000/svg">
<path d="M39.7502 30.9167H66.2502M39.7502 48.5833H66.2502M39.7502 66.25H57.4168M22.0835 22.0833C22.0835 19.7406 23.0141 17.4938 24.6707 15.8372C26.3273 14.1807 28.5741 13.25 30.9168 13.25H75.0835C77.4262 13.25 79.673 14.1807 81.3296 15.8372C82.9862 17.4938 83.9168 19.7406 83.9168 22.0833V83.9167C83.9168 86.2594 82.9862 88.5062 81.3296 90.1628C79.673 91.8193 77.4262 92.75 75.0835 92.75H30.9168C28.5741 92.75 26.3273 91.8193 24.6707 90.1628C23.0141 88.5062 22.0835 86.2594 22.0835 83.9167V22.0833Z" stroke="white" stroke-width="7" stroke-linecap="round" stroke-linejoin="round"/>
</svg>
