<svg width="45" height="46" viewBox="0 0 45 46" fill="none" xmlns="http://www.w3.org/2000/svg">
<path fill-rule="evenodd" clip-rule="evenodd" d="M32.1543 2.21039L32.2918 2.24789C34.5834 2.86247 36.398 3.34789 37.8251 3.86455C39.2855 4.39164 40.4772 4.99372 41.4584 5.91247C42.8865 7.25106 43.8856 8.98311 44.3293 10.8896C44.6355 12.1979 44.5626 13.5312 44.2876 15.0583C44.023 16.5541 43.5376 18.3687 42.923 20.6583L41.8064 24.8229C41.1938 27.1125 40.7063 28.9271 40.1918 30.3541C39.6626 31.8146 39.0605 33.0062 38.1418 33.9875C36.8469 35.3701 35.1824 36.352 33.3459 36.8166C32.8078 38.0502 32.0238 39.161 31.0418 40.0812C30.0605 41 28.8688 41.6021 27.4084 42.1312C25.9813 42.6479 24.1668 43.1333 21.8772 43.7479L21.7376 43.7854C19.4459 44.3979 17.6334 44.8833 16.1376 45.1521C14.6105 45.425 13.2772 45.4979 11.9668 45.1937C10.0606 44.7485 8.32925 43.748 6.99176 42.3187C6.07509 41.3396 5.47093 40.1479 4.94176 38.6875C4.42718 37.2604 3.94176 35.4458 3.32718 33.1541L2.21051 28.9916C1.59801 26.7 1.11051 24.8875 0.843844 23.3916C0.570927 21.8646 0.49801 20.5312 0.802177 19.2208C1.24737 17.3146 2.24789 15.5833 3.67718 14.2458C4.65634 13.3291 5.84801 12.725 7.30843 12.1958C8.73551 11.6812 10.5501 11.1958 12.8397 10.5812L12.9105 10.5604L14.4751 10.1437C15.2918 7.22914 16.0084 5.16872 17.4084 3.67497C18.7462 2.24645 20.4775 1.24667 22.3834 0.802055C23.6938 0.497888 25.0251 0.570805 26.5543 0.843721C28.048 1.11039 29.8626 1.59789 32.1543 2.21039ZM13.5313 13.6312C11.2543 14.2416 9.62301 14.6833 8.36884 15.1354C7.09801 15.5937 6.35426 16.0187 5.81259 16.5271C4.83478 17.4423 4.15037 18.627 3.84593 19.9312C3.67926 20.6562 3.68134 21.5146 3.92093 22.8416C4.16051 24.1896 4.61259 25.8771 5.24801 28.2521L6.32718 32.2771C6.96259 34.6521 7.41676 36.3396 7.88134 37.625C8.33968 38.8958 8.76468 39.6416 9.27301 40.1833C10.1882 41.1611 11.3729 41.8455 12.6772 42.15C13.4001 42.3166 14.2605 42.3125 15.5876 42.075C16.9355 41.8354 18.623 41.3833 20.998 40.7479C23.373 40.1104 25.0605 39.6583 26.348 39.1916C27.6168 38.7333 28.3626 38.3083 28.9043 37.8021C29.1918 37.5312 29.4522 37.2396 29.6876 36.9291C29.3011 36.8739 28.9162 36.8079 28.5334 36.7312C27.1334 36.4521 25.4501 36.0021 23.3772 35.4458L23.2563 35.4146C20.9668 34.8 19.1522 34.3146 17.7251 33.7979C16.2647 33.2708 15.073 32.6687 14.0918 31.75C12.6629 30.4117 11.6631 28.6796 11.2188 26.7729C10.9147 25.4646 10.9876 24.1312 11.2605 22.6021C11.5272 21.1083 12.0147 19.2937 12.6272 17.0041L13.5313 13.6312ZM26.0043 3.9208C24.6751 3.68122 23.8168 3.67705 23.0938 3.8458C21.7896 4.15025 20.6049 4.83466 19.6897 5.81247C18.7813 6.78122 18.2209 8.28122 17.2501 11.8396C17.0918 12.4187 16.9251 13.0416 16.7438 13.7187L15.6647 17.7437C15.0293 20.1187 14.5772 21.8062 14.3376 23.1541C14.098 24.4812 14.0938 25.3416 14.2626 26.0646C14.567 27.3688 15.2514 28.5535 16.2293 29.4687C16.7709 29.9771 17.5168 30.4 18.7855 30.8604C20.073 31.325 21.7605 31.7771 24.1355 32.4146C26.2709 32.9875 27.8543 33.4104 29.1418 33.6646C30.423 33.9208 31.2938 33.9833 32.0063 33.8958C32.1626 33.875 32.3105 33.85 32.4563 33.8166C33.7606 33.5122 34.9453 32.8278 35.8605 31.85C36.3688 31.3083 36.7938 30.5625 37.2522 29.2937C37.7168 28.0062 38.1688 26.3187 38.8063 23.9437L39.8855 19.9187C40.5209 17.5437 40.973 15.8562 41.2126 14.5083C41.4501 13.1812 41.4563 12.3208 41.2876 11.5979C40.9832 10.2936 40.2987 9.10896 39.3209 8.19372C38.7793 7.68539 38.0334 7.26247 36.7647 6.80205C35.4751 6.33747 33.7897 5.88539 31.4147 5.24789C29.0397 4.61247 27.3522 4.16039 26.0043 3.9208ZM21.0251 18.4291C21.0783 18.2309 21.17 18.0451 21.295 17.8823C21.42 17.7195 21.5758 17.583 21.7536 17.4804C21.9314 17.3779 22.1277 17.3114 22.3312 17.2847C22.5347 17.258 22.7415 17.2717 22.9397 17.325L33.0022 20.0208C33.3914 20.1378 33.7196 20.4019 33.9174 20.7569C34.1151 21.1119 34.1667 21.53 34.0613 21.9225C33.9558 22.315 33.7016 22.6509 33.3526 22.8591C33.0036 23.0672 32.5872 23.1312 32.1918 23.0375L22.1293 20.3416C21.7294 20.2342 21.3885 19.9725 21.1814 19.6139C20.9744 19.2553 20.9182 18.8292 21.0251 18.4291ZM19.4063 24.4666C19.4595 24.2682 19.5513 24.0821 19.6764 23.9192C19.8016 23.7563 19.9576 23.6196 20.1357 23.517C20.3137 23.4145 20.5102 23.348 20.7139 23.3215C20.9177 23.295 21.1247 23.3089 21.323 23.3625L27.3584 24.9791C27.7587 25.0863 28.1001 25.3482 28.3073 25.707C28.5146 26.0659 28.5708 26.4924 28.4636 26.8927C28.3564 27.293 28.0946 27.6343 27.7358 27.8416C27.3769 28.0489 26.9504 28.1051 26.5501 27.9979L20.5126 26.3791C20.1127 26.2717 19.7718 26.01 19.5648 25.6514C19.3577 25.2928 19.3015 24.8667 19.4084 24.4666H19.4063Z" fill="#76BC21"/>
</svg>
