<svg width="42" height="42" viewBox="0 0 42 42" fill="none" xmlns="http://www.w3.org/2000/svg">
<path d="M0.166748 35.5833C0.166748 39.125 2.87508 41.8333 6.41675 41.8333H35.5834C39.1251 41.8333 41.8334 39.125 41.8334 35.5833V18.9166H0.166748V35.5833ZM35.5834 4.33329H31.4167V2.24996C31.4167 0.999959 30.5834 0.166626 29.3334 0.166626C28.0834 0.166626 27.2501 0.999959 27.2501 2.24996V4.33329H14.7501V2.24996C14.7501 0.999959 13.9167 0.166626 12.6667 0.166626C11.4167 0.166626 10.5834 0.999959 10.5834 2.24996V4.33329H6.41675C2.87508 4.33329 0.166748 7.04163 0.166748 10.5833V14.75H41.8334V10.5833C41.8334 7.04163 39.1251 4.33329 35.5834 4.33329Z" fill="#76BC21"/>
</svg>
