<svg width="33" height="32" viewBox="0 0 33 32" fill="none" xmlns="http://www.w3.org/2000/svg">
<path d="M22.6518 7.21068L25.564 10.0333M24.5245 4.72401L16.6499 12.36C16.243 12.754 15.9655 13.256 15.8524 13.8027L15.125 17.3333L18.766 16.6267C19.3297 16.5173 19.8467 16.2493 20.2537 15.8547L28.1284 8.21868C28.365 7.98922 28.5527 7.7168 28.6808 7.417C28.8088 7.11719 28.8748 6.79586 28.8748 6.47135C28.8748 6.14684 28.8088 5.8255 28.6808 5.5257C28.5527 5.22589 28.365 4.95348 28.1284 4.72401C27.8917 4.49455 27.6108 4.31253 27.3016 4.18835C26.9925 4.06416 26.6611 4.00024 26.3264 4.00024C25.9918 4.00024 25.6604 4.06416 25.3512 4.18835C25.0421 4.31253 24.7611 4.49455 24.5245 4.72401Z" stroke="#FFA800" stroke-width="2" stroke-linecap="round" stroke-linejoin="round"/>
<path d="M26.125 20.0001V24.0001C26.125 24.7073 25.8353 25.3856 25.3195 25.8857C24.8038 26.3858 24.1043 26.6667 23.375 26.6667H8.25C7.52065 26.6667 6.82118 26.3858 6.30546 25.8857C5.78973 25.3856 5.5 24.7073 5.5 24.0001V9.33341C5.5 8.62617 5.78973 7.94789 6.30546 7.4478C6.82118 6.9477 7.52065 6.66675 8.25 6.66675H12.375" stroke="#FFA800" stroke-width="2" stroke-linecap="round" stroke-linejoin="round"/>
</svg>
