<svg width="33" height="33" viewBox="0 0 33 33" fill="none" xmlns="http://www.w3.org/2000/svg">
<path d="M4.1252 17.8748H5.5002V27.4998C5.5002 29.0164 6.73357 30.2498 8.2502 30.2498H24.7502C26.2668 30.2498 27.5002 29.0164 27.5002 27.4998V17.8748H28.8752C29.1471 17.8747 29.4129 17.7941 29.6389 17.643C29.865 17.4919 30.0412 17.2772 30.1453 17.0259C30.2493 16.7747 30.2765 16.4983 30.2235 16.2316C30.1705 15.9649 30.0396 15.72 29.8473 15.5277L17.4723 3.15266C17.3447 3.02486 17.1932 2.92347 17.0264 2.8543C16.8596 2.78512 16.6808 2.74951 16.5002 2.74951C16.3196 2.74951 16.1408 2.78512 15.974 2.8543C15.8072 2.92347 15.6557 3.02486 15.5281 3.15266L3.15307 15.5277C2.96083 15.72 2.82992 15.9649 2.77689 16.2316C2.72386 16.4983 2.75109 16.7747 2.85514 17.0259C2.95918 17.2772 3.13538 17.4919 3.36144 17.643C3.5875 17.7941 3.85329 17.8747 4.1252 17.8748ZM13.7502 27.4998V20.6248H19.2502V27.4998H13.7502ZM16.5002 6.06904L24.7502 14.319V20.6248L24.7516 27.4998H22.0002V20.6248C22.0002 19.1082 20.7668 17.8748 19.2502 17.8748H13.7502C12.2336 17.8748 11.0002 19.1082 11.0002 20.6248V27.4998H8.2502V14.319L16.5002 6.06904Z" fill="#585858"/>
</svg>
