<svg width="36" height="35" viewBox="0 0 36 35" fill="none" xmlns="http://www.w3.org/2000/svg">
<path d="M21 11.6668V8.75016C21 7.97661 20.6839 7.23475 20.1213 6.68777C19.5587 6.14079 18.7956 5.8335 18 5.8335H7.5C6.70435 5.8335 5.94129 6.14079 5.37868 6.68777C4.81607 7.23475 4.5 7.97661 4.5 8.75016V26.2502C4.5 27.0237 4.81607 27.7656 5.37868 28.3126C5.94129 28.8595 6.70435 29.1668 7.5 29.1668H18C18.7956 29.1668 19.5587 28.8595 20.1213 28.3126C20.6839 27.7656 21 27.0237 21 26.2502V23.3335" stroke="white" stroke-width="2" stroke-linecap="round" stroke-linejoin="round"/>
<path d="M13.5 17.5H31.5M31.5 17.5L27 13.125M31.5 17.5L27 21.875" stroke="white" stroke-width="2" stroke-linecap="round" stroke-linejoin="round"/>
</svg>
