<svg width="42" height="44" viewBox="0 0 42 44" fill="none" xmlns="http://www.w3.org/2000/svg">
<path d="M28.4844 3.30664C26.584 1.25488 23.9297 0.125 21 0.125C18.0547 0.125 15.3916 1.24805 13.5 3.28711C11.5879 5.34863 10.6563 8.15039 10.875 11.1758C11.3086 17.1445 15.8506 22 21 22C26.1494 22 30.6836 17.1455 31.124 11.1777C31.3457 8.17969 30.4082 5.38379 28.4844 3.30664ZM38.1875 43.875H3.81251C3.36257 43.8809 2.91699 43.7863 2.50818 43.5983C2.09937 43.4103 1.73761 43.1335 1.44923 42.7881C0.814462 42.0293 0.558603 40.9932 0.748056 39.9453C1.57227 35.373 4.14454 31.5322 8.18751 28.8359C11.7793 26.4424 16.3291 25.125 21 25.125C25.6709 25.125 30.2207 26.4434 33.8125 28.8359C37.8555 31.5312 40.4277 35.3721 41.252 39.9443C41.4414 40.9922 41.1856 42.0283 40.5508 42.7871C40.2625 43.1327 39.9008 43.4097 39.492 43.5979C39.0832 43.7861 38.6375 43.8807 38.1875 43.875Z" fill="#76BC21"/>
</svg>
