<svg width="28" height="22" viewBox="0 0 28 22" fill="none" xmlns="http://www.w3.org/2000/svg">
<path d="M5.5625 5.84375C5.5625 4.97351 5.9082 4.13891 6.52356 3.52356C7.13891 2.9082 7.97351 2.5625 8.84375 2.5625C9.71399 2.5625 10.5486 2.9082 11.1639 3.52356C11.7793 4.13891 12.125 4.97351 12.125 5.84375C12.125 6.71399 11.7793 7.54859 11.1639 8.16394C10.5486 8.7793 9.71399 9.125 8.84375 9.125C7.97351 9.125 7.13891 8.7793 6.52356 8.16394C5.9082 7.54859 5.5625 6.71399 5.5625 5.84375ZM8.84375 0.6875C7.47623 0.6875 6.16472 1.23075 5.19773 2.19773C4.23075 3.16472 3.6875 4.47623 3.6875 5.84375C3.6875 7.21127 4.23075 8.52279 5.19773 9.48977C6.16472 10.4568 7.47623 11 8.84375 11C10.2113 11 11.5228 10.4568 12.4898 9.48977C13.4568 8.52279 14 7.21127 14 5.84375C14 4.47623 13.4568 3.16472 12.4898 2.19773C11.5228 1.23075 10.2113 0.6875 8.84375 0.6875ZM18.6875 7.25C18.6875 6.75272 18.885 6.27581 19.2367 5.92418C19.5883 5.57254 20.0652 5.375 20.5625 5.375C21.0598 5.375 21.5367 5.57254 21.8883 5.92418C22.24 6.27581 22.4375 6.75272 22.4375 7.25C22.4375 7.74728 22.24 8.22419 21.8883 8.57582C21.5367 8.92746 21.0598 9.125 20.5625 9.125C20.0652 9.125 19.5883 8.92746 19.2367 8.57582C18.885 8.22419 18.6875 7.74728 18.6875 7.25ZM20.5625 3.5C19.5679 3.5 18.6141 3.89509 17.9109 4.59835C17.2076 5.30161 16.8125 6.25544 16.8125 7.25C16.8125 8.24456 17.2076 9.19839 17.9109 9.90165C18.6141 10.6049 19.5679 11 20.5625 11C21.5571 11 22.5109 10.6049 23.2141 9.90165C23.9174 9.19839 24.3125 8.24456 24.3125 7.25C24.3125 6.25544 23.9174 5.30161 23.2141 4.59835C22.5109 3.89509 21.5571 3.5 20.5625 3.5ZM0.875 15.6875C0.875 14.9416 1.17132 14.2262 1.69876 13.6988C2.22621 13.1713 2.94158 12.875 3.6875 12.875H14C14.7459 12.875 15.4613 13.1713 15.9887 13.6988C16.5162 14.2262 16.8125 14.9416 16.8125 15.6875V15.8994C16.8107 15.9868 16.8044 16.0741 16.7937 16.1609C16.775 16.3231 16.7403 16.5434 16.6719 16.8041C16.4918 17.4916 16.1731 18.1351 15.7353 18.695C14.6384 20.1031 12.575 21.3125 8.84375 21.3125C5.1125 21.3125 3.05 20.1031 1.95219 18.695C1.5141 18.1352 1.19507 17.4917 1.01469 16.8041C0.943079 16.5283 0.897257 16.2464 0.877813 15.9622C0.876906 15.9413 0.876281 15.9203 0.875937 15.8994V15.8778L0.875 15.8703V15.6875ZM2.75 15.8544V15.8656C2.76299 16.0233 2.78965 16.1795 2.82969 16.3325C2.91406 16.6587 3.08562 17.0994 3.43062 17.5428C4.09156 18.3903 5.54375 19.4375 8.84375 19.4375C12.1438 19.4375 13.5969 18.3903 14.2569 17.5437C14.5372 17.185 14.7413 16.7729 14.8569 16.3325C14.8972 16.1795 14.9242 16.0233 14.9375 15.8656L14.9384 15.8544V15.6875C14.9384 15.4389 14.8397 15.2004 14.6639 15.0246C14.488 14.8488 14.2496 14.75 14.0009 14.75H3.6875C3.43886 14.75 3.2004 14.8488 3.02459 15.0246C2.84877 15.2004 2.75 15.4389 2.75 15.6875V15.8544ZM17.2597 18.9613C18.1316 19.2575 19.2162 19.4375 20.5625 19.4375C23.5634 19.4375 25.2688 18.5441 26.1997 17.4453C26.6525 16.9109 26.8841 16.3691 27.0012 15.9528C27.0644 15.7296 27.1049 15.5007 27.1222 15.2694L27.1231 15.2356L27.1241 15.215V15.1794C27.1242 14.8767 27.0647 14.577 26.9489 14.2974C26.8331 14.0177 26.6634 13.7637 26.4494 13.5497C26.2354 13.3357 25.9813 13.1659 25.7017 13.0502C25.422 12.9344 25.1223 12.8749 24.8197 12.875H17.1425C17.6112 13.3991 17.9516 14.0403 18.1128 14.75H24.8197C25.0541 14.75 25.2434 14.9366 25.2491 15.1681C25.2398 15.2614 25.2223 15.3536 25.1966 15.4437C25.1384 15.65 25.0184 15.9388 24.7681 16.2341C24.2938 16.7956 23.1866 17.5625 20.5625 17.5625C19.4703 17.5625 18.6416 17.4294 18.0116 17.2344C17.8448 17.843 17.5916 18.4245 17.2597 18.9613Z" fill="white"/>
</svg>
