<svg width="45" height="45" viewBox="0 0 45 45" fill="none" xmlns="http://www.w3.org/2000/svg">
<path fill-rule="evenodd" clip-rule="evenodd" d="M22.4025 2.34375H22.5975C24.2831 2.34375 25.6875 2.34375 26.8012 2.49375C27.9787 2.65125 29.0419 3 29.895 3.85313C30.75 4.70813 31.0988 5.77125 31.2563 6.94687C31.3688 7.77187 31.3969 8.75438 31.4044 9.89063C32.6194 9.93 33.7031 10.0031 34.6669 10.1306C36.8644 10.4269 38.6437 11.0494 40.0481 12.4519C41.4506 13.8562 42.0731 15.6356 42.3694 17.8331C42.6563 19.9706 42.6562 22.6988 42.6562 26.145V26.355C42.6562 29.8012 42.6563 32.5313 42.3694 34.6669C42.0731 36.8644 41.4506 38.6437 40.0481 40.0481C38.6437 41.4506 36.8644 42.0731 34.6669 42.3694C32.5294 42.6563 29.8012 42.6562 26.355 42.6562H18.645C15.1988 42.6562 12.4688 42.6563 10.3331 42.3694C8.13563 42.0731 6.35625 41.4506 4.95188 40.0481C3.54938 38.6437 2.92688 36.8644 2.63062 34.6669C2.34375 32.5294 2.34375 29.8012 2.34375 26.355V26.145C2.34375 22.6988 2.34375 19.9687 2.63062 17.8331C2.92688 15.6356 3.54938 13.8562 4.95188 12.4519C6.35625 11.0494 8.13563 10.4269 10.3331 10.1306C11.416 9.99655 12.5048 9.91646 13.5956 9.89063C13.6031 8.75438 13.6331 7.77187 13.7437 6.94687C13.9012 5.77125 14.25 4.70813 15.1031 3.85313C15.9581 3 17.0212 2.65313 18.1969 2.49375C19.3125 2.34375 20.7187 2.34375 22.4025 2.34375ZM16.41 9.8475C17.1187 9.84375 17.8631 9.84375 18.645 9.84375H26.355C27.1369 9.84375 27.8813 9.84375 28.59 9.8475C28.5825 8.77875 28.5563 7.9725 28.47 7.32187C28.3519 6.4575 28.1512 6.08625 27.9075 5.8425C27.6637 5.59875 27.2925 5.39812 26.4262 5.28C25.5225 5.16 24.3075 5.15625 22.5 5.15625C20.6925 5.15625 19.4775 5.16 18.5719 5.28187C17.7075 5.39812 17.3363 5.59875 17.0925 5.84438C16.8488 6.08813 16.6481 6.4575 16.53 7.32187C16.4437 7.97062 16.4175 8.77687 16.41 9.8475ZM10.7063 12.9187C8.82 13.1719 7.7325 13.6481 6.9375 14.4413C6.14625 15.2344 5.67 16.3219 5.41687 18.2081C5.15812 20.1338 5.15438 22.6744 5.15438 26.25C5.15438 29.8256 5.15812 32.3663 5.41687 34.2938C5.67 36.1781 6.14625 37.2656 6.93937 38.0588C7.7325 38.8519 8.82 39.3281 10.7063 39.5813C12.6338 39.84 15.1725 39.8438 18.7481 39.8438H26.2481C29.8237 39.8438 32.3644 39.84 34.2919 39.5813C36.1762 39.3281 37.2638 38.8519 38.0569 38.0588C38.85 37.2656 39.3262 36.1781 39.5794 34.2919C39.8381 32.3662 39.8419 29.8256 39.8419 26.25C39.8419 22.6744 39.8381 20.1356 39.5794 18.2063C39.3262 16.3219 38.85 15.2344 38.0569 14.4413C37.2638 13.6481 36.1763 13.1719 34.29 12.9187C32.3644 12.66 29.8237 12.6562 26.2481 12.6562H18.7481C15.1725 12.6562 12.6356 12.66 10.7063 12.9187Z" fill="#45C380"/>
<path d="M31.875 16.875C31.875 17.3723 31.6775 17.8492 31.3258 18.2008C30.9742 18.5525 30.4973 18.75 30 18.75C29.5027 18.75 29.0258 18.5525 28.6742 18.2008C28.3225 17.8492 28.125 17.3723 28.125 16.875C28.125 16.3777 28.3225 15.9008 28.6742 15.5492C29.0258 15.1975 29.5027 15 30 15C30.4973 15 30.9742 15.1975 31.3258 15.5492C31.6775 15.9008 31.875 16.3777 31.875 16.875ZM16.875 16.875C16.875 17.3723 16.6775 17.8492 16.3258 18.2008C15.9742 18.5525 15.4973 18.75 15 18.75C14.5027 18.75 14.0258 18.5525 13.6742 18.2008C13.3225 17.8492 13.125 17.3723 13.125 16.875C13.125 16.3777 13.3225 15.9008 13.6742 15.5492C14.0258 15.1975 14.5027 15 15 15C15.4973 15 15.9742 15.1975 16.3258 15.5492C16.6775 15.9008 16.875 16.3777 16.875 16.875Z" fill="#45C380"/>
</svg>
