<svg width="68" height="54" viewBox="0 0 68 54" fill="none" xmlns="http://www.w3.org/2000/svg">
<path d="M60.6665 7.00016C62.4346 7.00016 64.1303 7.70254 65.3806 8.95278C66.6308 10.203 67.3332 11.8987 67.3332 13.6668V47.0002C67.3332 48.7683 66.6308 50.464 65.3806 51.7142C64.1303 52.9645 62.4346 53.6668 60.6665 53.6668H7.33317C5.56506 53.6668 3.86937 52.9645 2.61913 51.7142C1.36888 50.464 0.666504 48.7683 0.666504 47.0002V7.00016C0.666504 5.23205 1.36888 3.53636 2.61913 2.28612C3.86937 1.03587 5.56506 0.333496 7.33317 0.333496H27.3332L33.9998 7.00016H60.6665ZM29.8332 30.3335H40.6665V43.6668H47.3332V30.3335H58.1665L43.9998 16.1668" fill="#6D6D6D"/>
</svg>
