<svg width="27" height="21" viewBox="0 0 27 21" fill="none" xmlns="http://www.w3.org/2000/svg">
<path d="M4.6875 5.15625C4.6875 4.28601 5.0332 3.45141 5.64856 2.83606C6.26391 2.2207 7.09851 1.875 7.96875 1.875C8.83899 1.875 9.67359 2.2207 10.2889 2.83606C10.9043 3.45141 11.25 4.28601 11.25 5.15625C11.25 6.02649 10.9043 6.86109 10.2889 7.47644C9.67359 8.0918 8.83899 8.4375 7.96875 8.4375C7.09851 8.4375 6.26391 8.0918 5.64856 7.47644C5.0332 6.86109 4.6875 6.02649 4.6875 5.15625ZM7.96875 0C6.60123 0 5.28972 0.543246 4.32273 1.51023C3.35575 2.47722 2.8125 3.78873 2.8125 5.15625C2.8125 6.52377 3.35575 7.83529 4.32273 8.80227C5.28972 9.76925 6.60123 10.3125 7.96875 10.3125C9.33627 10.3125 10.6478 9.76925 11.6148 8.80227C12.5818 7.83529 13.125 6.52377 13.125 5.15625C13.125 3.78873 12.5818 2.47722 11.6148 1.51023C10.6478 0.543246 9.33627 0 7.96875 0ZM17.8125 6.5625C17.8125 6.06522 18.01 5.58831 18.3617 5.23668C18.7133 4.88504 19.1902 4.6875 19.6875 4.6875C20.1848 4.6875 20.6617 4.88504 21.0133 5.23668C21.365 5.58831 21.5625 6.06522 21.5625 6.5625C21.5625 7.05978 21.365 7.53669 21.0133 7.88832C20.6617 8.23996 20.1848 8.4375 19.6875 8.4375C19.1902 8.4375 18.7133 8.23996 18.3617 7.88832C18.01 7.53669 17.8125 7.05978 17.8125 6.5625ZM19.6875 2.8125C18.6929 2.8125 17.7391 3.20759 17.0359 3.91085C16.3326 4.61411 15.9375 5.56794 15.9375 6.5625C15.9375 7.55706 16.3326 8.51089 17.0359 9.21415C17.7391 9.91741 18.6929 10.3125 19.6875 10.3125C20.6821 10.3125 21.6359 9.91741 22.3391 9.21415C23.0424 8.51089 23.4375 7.55706 23.4375 6.5625C23.4375 5.56794 23.0424 4.61411 22.3391 3.91085C21.6359 3.20759 20.6821 2.8125 19.6875 2.8125ZM0 15C0 14.2541 0.296316 13.5387 0.823762 13.0113C1.35121 12.4838 2.06658 12.1875 2.8125 12.1875H13.125C13.8709 12.1875 14.5863 12.4838 15.1137 13.0113C15.6412 13.5387 15.9375 14.2541 15.9375 15V15.2119C15.9357 15.2993 15.9294 15.3866 15.9187 15.4734C15.9 15.6356 15.8653 15.8559 15.7969 16.1166C15.6168 16.8041 15.2981 17.4476 14.8603 18.0075C13.7634 19.4156 11.7 20.625 7.96875 20.625C4.2375 20.625 2.175 19.4156 1.07719 18.0075C0.639103 17.4477 0.320073 16.8042 0.139687 16.1166C0.0680793 15.8408 0.0222573 15.5589 0.00281252 15.2747C0.00190617 15.2538 0.00128103 15.2328 0.000937432 15.2119V15.1903L0 15.1828V15ZM1.875 15.1669V15.1781C1.88799 15.3358 1.91465 15.492 1.95469 15.645C2.03906 15.9712 2.21062 16.4119 2.55562 16.8553C3.21656 17.7028 4.66875 18.75 7.96875 18.75C11.2687 18.75 12.7219 17.7028 13.3819 16.8562C13.6622 16.4975 13.8663 16.0854 13.9819 15.645C14.0222 15.492 14.0492 15.3358 14.0625 15.1781L14.0634 15.1669V15C14.0634 14.7514 13.9647 14.5129 13.7889 14.3371C13.613 14.1613 13.3746 14.0625 13.1259 14.0625H2.8125C2.56386 14.0625 2.3254 14.1613 2.14959 14.3371C1.97377 14.5129 1.875 14.7514 1.875 15V15.1669ZM16.3847 18.2738C17.2566 18.57 18.3413 18.75 19.6875 18.75C22.6884 18.75 24.3938 17.8566 25.3247 16.7578C25.7775 16.2234 26.0091 15.6816 26.1263 15.2653C26.1894 15.0421 26.2299 14.8132 26.2472 14.5819L26.2481 14.5481L26.2491 14.5275V14.4919C26.2492 14.1892 26.1897 13.8895 26.0739 13.6099C25.9581 13.3302 25.7884 13.0762 25.5744 12.8622C25.3604 12.6482 25.1063 12.4784 24.8267 12.3627C24.547 12.2469 24.2473 12.1874 23.9447 12.1875H16.2675C16.7362 12.7116 17.0766 13.3528 17.2378 14.0625H23.9447C24.1791 14.0625 24.3684 14.2491 24.3741 14.4806C24.3648 14.5739 24.3473 14.6661 24.3216 14.7562C24.2634 14.9625 24.1434 15.2513 23.8931 15.5466C23.4188 16.1081 22.3116 16.875 19.6875 16.875C18.5953 16.875 17.7666 16.7419 17.1366 16.5469C16.9698 17.1555 16.7166 17.737 16.3847 18.2738Z" fill="white"/>
</svg>
