<svg width="32" height="32" viewBox="0 0 32 32" fill="none" xmlns="http://www.w3.org/2000/svg">
<path d="M15.9997 16.9997C14.533 16.9997 13.2775 16.4775 12.233 15.433C11.1886 14.3886 10.6663 13.133 10.6663 11.6663C10.6663 10.1997 11.1886 8.94412 12.233 7.89967C13.2775 6.85523 14.533 6.33301 15.9997 6.33301C17.4663 6.33301 18.7219 6.85523 19.7663 7.89967C20.8108 8.94412 21.333 10.1997 21.333 11.6663C21.333 13.133 20.8108 14.3886 19.7663 15.433C18.7219 16.4775 17.4663 16.9997 15.9997 16.9997ZM5.33301 27.6663V23.933C5.33301 23.1775 5.52767 22.4828 5.91701 21.849C6.30634 21.2152 6.82279 20.7321 7.46634 20.3997C8.84412 19.7108 10.2441 19.1939 11.6663 18.849C13.0886 18.5041 14.533 18.3321 15.9997 18.333C17.4663 18.333 18.9108 18.5055 20.333 18.8503C21.7552 19.1952 23.1552 19.7117 24.533 20.3997C25.1775 20.733 25.6943 21.2166 26.0837 21.8503C26.473 22.4841 26.6672 23.1783 26.6663 23.933V27.6663H5.33301Z" fill="white"/>
</svg>
