<svg width="60" height="60" viewBox="0 0 60 60" fill="none" xmlns="http://www.w3.org/2000/svg">
<g clip-path="url(#clip0_101_498)">
<path fill-rule="evenodd" clip-rule="evenodd" d="M52.5001 50C53.1373 50.0007 53.7501 50.2447 54.2135 50.6821C54.6768 51.1195 54.9556 51.7174 54.993 52.3535C55.0303 52.9896 54.8234 53.6159 54.4144 54.1046C54.0054 54.5932 53.4253 54.9072 52.7926 54.9825L52.5001 55H7.50006C6.86286 54.9993 6.24998 54.7553 5.78664 54.3179C5.3233 53.8805 5.04447 53.2826 5.00713 52.6465C4.96978 52.0104 5.17674 51.3841 5.58572 50.8954C5.9947 50.4068 6.57482 50.0928 7.20756 50.0175L7.50006 50H52.5001ZM18.1551 9.43C18.5741 9.31784 19.0119 9.29414 19.4406 9.36043C19.8693 9.42671 20.2795 9.58152 20.6451 9.815L20.9501 10.0375L36.4101 22.765L45.9901 21.035C47.6621 20.733 49.3838 20.8665 50.9894 21.4226C52.595 21.9786 54.0304 22.9386 55.1576 24.21C56.3001 25.4975 56.7851 27.2025 56.2201 28.8725C55.7914 30.1402 55.0755 31.2916 54.1284 32.237C53.1813 33.1824 52.0285 33.8961 50.7601 34.3225L50.2426 34.48L12.5501 44.58C12.074 44.7074 11.5725 44.7045 11.098 44.5717C10.6234 44.4389 10.1933 44.181 9.85256 43.825L9.63756 43.57L1.69506 32.955C1.46321 32.6455 1.30555 32.2869 1.23423 31.9068C1.16291 31.5268 1.17984 31.1354 1.28371 30.7629C1.38759 30.3904 1.57562 30.0468 1.83333 29.7584C2.09103 29.4701 2.41151 29.2449 2.77006 29.1L3.06506 29.0025L8.74006 27.4825C9.18057 27.3644 9.64158 27.3442 10.0907 27.4232C10.5399 27.5023 10.9663 27.6786 11.3401 27.94L11.6151 28.1525L13.6051 29.9025L19.5926 27.5625L9.92506 15.28C9.68208 14.9713 9.5145 14.6101 9.43562 14.2253C9.35675 13.8404 9.36876 13.4425 9.47071 13.0631C9.57266 12.6837 9.76173 12.3333 10.0229 12.0398C10.284 11.7463 10.6101 11.5178 10.9751 11.3725L11.2576 11.28L18.1551 9.43ZM18.5151 14.51L16.1776 15.135L25.5851 27.095C26.5676 28.3425 26.1601 30.145 24.8026 30.875L24.5201 31.0075L14.0201 35.1075C13.6384 35.2567 13.2261 35.3108 12.8189 35.2651C12.4116 35.2193 12.0216 35.0752 11.6826 34.845L11.4351 34.6525L9.06756 32.57L7.89006 32.8875L12.7276 39.355L48.9501 29.65C50.0601 29.3525 50.9626 28.5575 51.4001 27.505C50.8895 26.9357 50.2528 26.4938 49.5408 26.2147C48.8289 25.9356 48.0615 25.8269 47.3001 25.8975L46.8826 25.955L36.1726 27.89C35.5507 28.0024 34.9093 27.8775 34.3751 27.54L34.1201 27.3525L18.5201 14.51H18.5151Z" fill="white"/>
</g>
<defs>
<clipPath id="clip0_101_498">
<rect width="60" height="60" fill="white"/>
</clipPath>
</defs>
</svg>
