<svg width="22" height="22" viewBox="0 0 22 22" fill="none" xmlns="http://www.w3.org/2000/svg">
<path fill-rule="evenodd" clip-rule="evenodd" d="M10.9524 1.146H11.0477C11.8718 1.146 12.5584 1.146 13.1029 1.21933C13.6785 1.29633 14.1983 1.46683 14.6154 1.88391C15.0334 2.30191 15.2039 2.82166 15.2809 3.39641C15.3359 3.79975 15.3496 4.28008 15.3533 4.83558C15.9473 4.85483 16.4771 4.89058 16.9483 4.95291C18.0226 5.09775 18.8925 5.40208 19.5791 6.08775C20.2648 6.77433 20.5691 7.64425 20.714 8.71858C20.8542 9.76358 20.8542 11.0973 20.8542 12.7822V12.8848C20.8542 14.5697 20.8542 15.9043 20.714 16.9484C20.5691 18.0227 20.2648 18.8927 19.5791 19.5792C18.8925 20.2649 18.0226 20.5692 16.9483 20.7141C15.9033 20.8543 14.5695 20.8543 12.8847 20.8543H9.11537C7.43054 20.8543 6.09587 20.8543 5.05179 20.7141C3.97746 20.5692 3.10754 20.2649 2.42096 19.5792C1.73529 18.8927 1.43096 18.0227 1.28612 16.9484C1.14587 15.9034 1.14587 14.5697 1.14587 12.8848V12.7822C1.14587 11.0973 1.14587 9.76266 1.28612 8.71858C1.43096 7.64425 1.73529 6.77433 2.42096 6.08775C3.10754 5.40208 3.97746 5.09775 5.05179 4.95291C5.58118 4.88737 6.11351 4.84821 6.64679 4.83558C6.65046 4.28008 6.66512 3.79975 6.71921 3.39641C6.79621 2.82166 6.96671 2.30191 7.38379 1.88391C7.80179 1.46683 8.32154 1.29725 8.89629 1.21933C9.44171 1.146 10.1292 1.146 10.9524 1.146ZM8.02271 4.8145C8.36921 4.81266 8.73312 4.81266 9.11537 4.81266H12.8847C13.267 4.81266 13.6309 4.81266 13.9774 4.8145C13.9737 4.292 13.9609 3.89783 13.9187 3.57975C13.861 3.15716 13.7629 2.97566 13.6437 2.8565C13.5245 2.73733 13.343 2.63925 12.9195 2.5815C12.4777 2.52283 11.8837 2.521 11 2.521C10.1164 2.521 9.52237 2.52283 9.07962 2.58241C8.65704 2.63925 8.47554 2.73733 8.35637 2.85741C8.23721 2.97658 8.13912 3.15716 8.08137 3.57975C8.03921 3.89691 8.02637 4.29108 8.02271 4.8145ZM5.23421 6.316C4.31204 6.43975 3.78037 6.67258 3.39171 7.06033C3.00487 7.44808 2.77204 7.97975 2.64829 8.90191C2.52179 9.84333 2.51996 11.0854 2.51996 12.8335C2.51996 14.5816 2.52179 15.8237 2.64829 16.766C2.77204 17.6872 3.00487 18.2189 3.39262 18.6067C3.78037 18.9944 4.31204 19.2272 5.23421 19.351C6.17654 19.4775 7.41771 19.4793 9.16579 19.4793H12.8325C14.5805 19.4793 15.8226 19.4775 16.765 19.351C17.6862 19.2272 18.2179 18.9944 18.6056 18.6067C18.9934 18.2189 19.2262 17.6872 19.35 16.7651C19.4765 15.8237 19.4783 14.5816 19.4783 12.8335C19.4783 11.0854 19.4765 9.84425 19.35 8.901C19.2262 7.97975 18.9934 7.44808 18.6056 7.06033C18.2179 6.67258 17.6862 6.43975 16.764 6.316C15.8226 6.1895 14.5805 6.18766 12.8325 6.18766H9.16579C7.41771 6.18766 6.17746 6.1895 5.23421 6.316Z" fill="#45C380"/>
<path d="M15.5834 8.25016C15.5834 8.49328 15.4868 8.72644 15.3149 8.89834C15.143 9.07025 14.9099 9.16683 14.6667 9.16683C14.4236 9.16683 14.1905 9.07025 14.0186 8.89834C13.8467 8.72644 13.7501 8.49328 13.7501 8.25016C13.7501 8.00705 13.8467 7.77389 14.0186 7.60198C14.1905 7.43007 14.4236 7.3335 14.6667 7.3335C14.9099 7.3335 15.143 7.43007 15.3149 7.60198C15.4868 7.77389 15.5834 8.00705 15.5834 8.25016ZM8.25008 8.25016C8.25008 8.49328 8.1535 8.72644 7.9816 8.89834C7.80969 9.07025 7.57653 9.16683 7.33341 9.16683C7.0903 9.16683 6.85714 9.07025 6.68523 8.89834C6.51333 8.72644 6.41675 8.49328 6.41675 8.25016C6.41675 8.00705 6.51333 7.77389 6.68523 7.60198C6.85714 7.43007 7.0903 7.3335 7.33341 7.3335C7.57653 7.3335 7.80969 7.43007 7.9816 7.60198C8.1535 7.77389 8.25008 8.00705 8.25008 8.25016Z" fill="#45C380"/>
</svg>
