<svg width="30" height="30" viewBox="0 0 30 30" fill="none" xmlns="http://www.w3.org/2000/svg">
<path d="M26.6667 26.6667H3.33333V3.33333H26.6667M26.6667 0H3.33333C2.44928 0 1.60143 0.351189 0.976311 0.976311C0.351189 1.60143 0 2.44928 0 3.33333V26.6667C0 27.5507 0.351189 28.3986 0.976311 29.0237C1.60143 29.6488 2.44928 30 3.33333 30H26.6667C27.5507 30 28.3986 29.6488 29.0237 29.0237C29.6488 28.3986 30 27.5507 30 26.6667V3.33333C30 2.44928 29.6488 1.60143 29.0237 0.976311C28.3986 0.351189 27.5507 0 26.6667 0ZM22.5 22.0833C22.5 19.5833 17.5 18.3333 15 18.3333C12.5 18.3333 7.5 19.5833 7.5 22.0833V23.3333H22.5M15 15.4167C15.9946 15.4167 16.9484 15.0216 17.6516 14.3183C18.3549 13.6151 18.75 12.6612 18.75 11.6667C18.75 10.6721 18.3549 9.71828 17.6516 9.01502C16.9484 8.31176 15.9946 7.91667 15 7.91667C14.0054 7.91667 13.0516 8.31176 12.3483 9.01502C11.6451 9.71828 11.25 10.6721 11.25 11.6667C11.25 12.6612 11.6451 13.6151 12.3483 14.3183C13.0516 15.0216 14.0054 15.4167 15 15.4167Z" fill="#45C380"/>
</svg>
