<svg width="24" height="22" viewBox="0 0 24 22" fill="none" xmlns="http://www.w3.org/2000/svg">
<path d="M1.16699 3.41667C1.16699 2.84203 1.39527 2.29093 1.80159 1.8846C2.20792 1.47827 2.75902 1.25 3.33366 1.25H9.83366V20.75H3.33366C2.75902 20.75 2.20792 20.5217 1.80159 20.1154C1.39527 19.7091 1.16699 19.158 1.16699 18.5833V3.41667ZM14.167 1.25H20.667C21.2416 1.25 21.7927 1.47827 22.1991 1.8846C22.6054 2.29093 22.8337 2.84203 22.8337 3.41667V8.83333H14.167V1.25ZM14.167 13.1667H22.8337V18.5833C22.8337 19.158 22.6054 19.7091 22.1991 20.1154C21.7927 20.5217 21.2416 20.75 20.667 20.75H14.167V13.1667Z" stroke="black" stroke-width="2" stroke-linecap="round" stroke-linejoin="round"/>
</svg>
