<svg width="24" height="24" viewBox="0 0 24 24" fill="none" xmlns="http://www.w3.org/2000/svg">
<path d="M4.7502 6.1002C4.7502 4.66803 5.31912 3.29452 6.33182 2.28182C7.34451 1.26912 8.71803 0.700195 10.1502 0.700195C11.5824 0.700195 12.9559 1.26912 13.9686 2.28182C14.9813 3.29452 15.5502 4.66803 15.5502 6.1002C15.5502 7.53236 14.9813 8.90588 13.9686 9.91857C12.9559 10.9313 11.5824 11.5002 10.1502 11.5002C8.71803 11.5002 7.34451 10.9313 6.33182 9.91857C5.31912 8.90588 4.7502 7.53236 4.7502 6.1002ZM10.1502 2.0502C9.07607 2.0502 8.04594 2.47689 7.28641 3.23641C6.52689 3.99594 6.1002 5.02607 6.1002 6.1002C6.1002 7.17432 6.52689 8.20446 7.28641 8.96398C8.04594 9.7235 9.07607 10.1502 10.1502 10.1502C11.2243 10.1502 12.2545 9.7235 13.014 8.96398C13.7735 8.20446 14.2002 7.17432 14.2002 6.1002C14.2002 5.02607 13.7735 3.99594 13.014 3.23641C12.2545 2.47689 11.2243 2.0502 10.1502 2.0502ZM0.700195 15.5502C0.700195 14.0476 1.91925 12.8502 3.41235 12.8502H11.8471C11.5033 13.2666 11.2059 13.7193 10.9602 14.2002H3.41235C2.655 14.2002 2.0502 14.8036 2.0502 15.5502C2.0502 17.3173 2.8899 18.6336 4.30875 19.5367C5.75325 20.4588 7.80795 20.9502 10.1502 20.9502C10.4202 20.9502 10.6875 20.9434 10.9494 20.9299C11.1829 21.3916 11.4637 21.8236 11.7837 22.2232C11.2504 22.2745 10.7037 22.3002 10.1502 22.3002C7.64595 22.3002 5.31315 21.7791 3.58245 20.6761C1.82475 19.5556 0.700195 17.8317 0.700195 15.5502ZM23.6502 17.5752C23.6502 19.1864 23.0102 20.7316 21.8709 21.8709C20.7316 23.0102 19.1864 23.6502 17.5752 23.6502C15.964 23.6502 14.4188 23.0102 13.2795 21.8709C12.1402 20.7316 11.5002 19.1864 11.5002 17.5752C11.5002 15.964 12.1402 14.4188 13.2795 13.2795C14.4188 12.1402 15.964 11.5002 17.5752 11.5002C19.1864 11.5002 20.7316 12.1402 21.8709 13.2795C23.0102 14.4188 23.6502 15.964 23.6502 17.5752ZM17.5752 14.2002C17.3962 14.2002 17.2245 14.2713 17.0979 14.3979C16.9713 14.5245 16.9002 14.6962 16.9002 14.8752V17.5752C16.9002 17.7542 16.9713 17.9259 17.0979 18.0525C17.2245 18.1791 17.3962 18.2502 17.5752 18.2502H19.6002C19.7792 18.2502 19.9509 18.1791 20.0775 18.0525C20.2041 17.9259 20.2752 17.7542 20.2752 17.5752C20.2752 17.3962 20.2041 17.2245 20.0775 17.0979C19.9509 16.9713 19.7792 16.9002 19.6002 16.9002H18.2502V14.8752C18.2502 14.6962 18.1791 14.5245 18.0525 14.3979C17.9259 14.2713 17.7542 14.2002 17.5752 14.2002Z" fill="white"/>
</svg>
