<svg width="24" height="22" viewBox="0 0 24 22" fill="none" xmlns="http://www.w3.org/2000/svg">
<path d="M1.1665 3.41667C1.1665 2.84203 1.39478 2.29093 1.80111 1.8846C2.20743 1.47827 2.75853 1.25 3.33317 1.25H9.83317V20.75H3.33317C2.75853 20.75 2.20743 20.5217 1.80111 20.1154C1.39478 19.7091 1.1665 19.158 1.1665 18.5833V3.41667ZM14.1665 1.25H20.6665C21.2411 1.25 21.7922 1.47827 22.1986 1.8846C22.6049 2.29093 22.8332 2.84203 22.8332 3.41667V8.83333H14.1665V1.25ZM14.1665 13.1667H22.8332V18.5833C22.8332 19.158 22.6049 19.7091 22.1986 20.1154C21.7922 20.5217 21.2411 20.75 20.6665 20.75H14.1665V13.1667Z" stroke="white" stroke-width="2" stroke-linecap="round" stroke-linejoin="round"/>
</svg>
