<svg width="23" height="23" viewBox="0 0 23 23" fill="none" xmlns="http://www.w3.org/2000/svg">
<path d="M19.9375 2.5H16.5625V0.8125C16.5625 0.663316 16.5032 0.520242 16.3977 0.414753C16.2923 0.309263 16.1492 0.25 16 0.25C15.8508 0.25 15.7077 0.309263 15.6023 0.414753C15.4968 0.520242 15.4375 0.663316 15.4375 0.8125V2.5H7.5625V0.8125C7.5625 0.663316 7.50324 0.520242 7.39775 0.414753C7.29226 0.309263 7.14918 0.25 7 0.25C6.85082 0.25 6.70774 0.309263 6.60225 0.414753C6.49676 0.520242 6.4375 0.663316 6.4375 0.8125V2.5H3.0625C2.31685 2.50089 1.602 2.7975 1.07475 3.32475C0.547496 3.852 0.250893 4.56685 0.25 5.3125V19.9375C0.250893 20.6831 0.547496 21.398 1.07475 21.9253C1.602 22.4525 2.31685 22.7491 3.0625 22.75H19.9375C20.6832 22.7494 21.3983 22.4529 21.9256 21.9256C22.4529 21.3983 22.7494 20.6832 22.75 19.9375V5.3125C22.7494 4.56676 22.4529 3.85174 21.9256 3.32442C21.3983 2.7971 20.6832 2.5006 19.9375 2.5ZM21.625 19.9375C21.625 20.3851 21.4472 20.8143 21.1307 21.1307C20.8143 21.4472 20.3851 21.625 19.9375 21.625H3.0625C2.61495 21.625 2.18572 21.4472 1.86926 21.1307C1.55279 20.8143 1.375 20.3851 1.375 19.9375V10.375H21.625V19.9375ZM21.625 9.25H1.375V5.3125C1.375 4.381 2.12875 3.625 3.0625 3.625H6.4375V5.3125C6.4375 5.46168 6.49676 5.60476 6.60225 5.71025C6.70774 5.81574 6.85082 5.875 7 5.875C7.14918 5.875 7.29226 5.81574 7.39775 5.71025C7.50324 5.60476 7.5625 5.46168 7.5625 5.3125V3.625H15.4375V5.3125C15.4375 5.46168 15.4968 5.60476 15.6023 5.71025C15.7077 5.81574 15.8508 5.875 16 5.875C16.1492 5.875 16.2923 5.81574 16.3977 5.71025C16.5032 5.60476 16.5625 5.46168 16.5625 5.3125V3.625H19.9375C20.3851 3.625 20.8143 3.80279 21.1307 4.11926C21.4472 4.43572 21.625 4.86495 21.625 5.3125V9.25Z" fill="white"/>
</svg>
