<svg width="25" height="24" viewBox="0 0 25 24" fill="none" xmlns="http://www.w3.org/2000/svg">
<path d="M4.68343 20.5714V23.1999L0.819616 19.4286H3.51266C4.15661 19.4286 4.68337 19.9428 4.68337 20.5714H4.68343ZM2.92709 13.1428C2.92709 13.4571 3.19048 13.7141 3.51245 13.7141H12.2936V15.4285H3.51245C3.19046 15.4285 2.92709 15.6856 2.92709 15.9999C2.92709 16.3142 3.19048 16.5713 3.51245 16.5713H12.2936V22.857C12.2936 23.2855 12.4106 23.657 12.6156 23.9998L5.8541 24V20.5715C5.8541 19.3143 4.80036 18.2857 3.51241 18.2857H0V1.14276C0 0.514186 0.526764 0 1.17072 0H15.806C16.4499 0 16.9767 0.514186 16.9767 1.14276V9.71422H14.635C13.347 9.71422 12.2933 10.7428 12.2933 12V12.5714H3.51267C3.19068 12.5714 2.9271 12.8285 2.9271 13.1428L2.92709 13.1428ZM9.65931 7.42845V7.99983C9.65931 8.31413 9.33732 8.57121 8.95676 8.57121H7.99084C7.61026 8.57121 7.28829 8.31412 7.28829 7.99983C7.28829 7.85694 7.22969 7.71404 7.1127 7.59984C7.02511 7.48564 6.87871 7.42844 6.73232 7.42844C6.41034 7.42844 6.14697 7.68554 6.14697 7.99982C6.14697 8.91422 6.93732 9.65697 7.9033 9.71422V10.2856C7.9033 10.5999 8.16669 10.857 8.48866 10.857C8.81064 10.857 9.07402 10.5999 9.07402 10.2856V9.71422C10.0399 9.65702 10.8303 8.91422 10.8303 7.99982V7.42844C10.8303 6.51405 10.04 5.77129 9.07402 5.71405H8.98622H8.02029C7.63971 5.71405 7.31775 5.45695 7.31775 5.14267V4.57129C7.31775 4.25699 7.63974 3.99991 8.02029 3.99991H8.98622C9.3668 3.99991 9.68876 4.25701 9.68876 4.57129C9.68876 4.71419 9.74736 4.85709 9.86436 4.97128C9.95215 5.08568 10.0985 5.14288 10.2447 5.14288C10.5667 5.14288 10.8301 4.88578 10.8301 4.5715C10.8301 3.65711 10.0397 2.91435 9.07375 2.8571V2.28572C9.07375 1.97143 8.81037 1.71434 8.4884 1.71434C8.16643 1.71434 7.90304 1.97144 7.90304 2.28572V2.8571C6.93711 2.9143 6.1467 3.65711 6.1467 4.5715V5.14288C6.1467 6.05727 6.93706 6.80003 7.90304 6.85727H7.99084H8.95676C9.33734 6.85707 9.65931 7.11417 9.65931 7.42845V7.42845ZM13.4645 13.7142H24.0019V22.8571C24.0019 23.4857 23.4751 23.9998 22.8312 23.9998H14.6354C13.9915 23.9998 13.4647 23.4857 13.4647 22.8571L13.4645 13.7142ZM21.0749 15.9998C21.0749 16.1427 21.1334 16.2856 21.2504 16.3998C21.3674 16.5142 21.5138 16.5714 21.6602 16.5714H21.7772C21.8064 16.5714 21.865 16.5429 21.8942 16.5429C21.9234 16.5429 21.9528 16.5144 21.982 16.4857C22.0112 16.4572 22.0406 16.4572 22.0698 16.4285C22.187 16.2856 22.2456 16.1427 22.2456 15.9998C22.2456 15.8569 22.187 15.714 22.07 15.5998C21.9236 15.4569 21.748 15.3997 21.5432 15.4569C21.514 15.4569 21.4554 15.4854 21.4262 15.4854C21.397 15.5139 21.3676 15.5139 21.3384 15.5426C21.3092 15.5711 21.2798 15.5998 21.2507 15.5998C21.1333 15.7142 21.0749 15.8571 21.0749 15.9998H21.0749ZM21.0749 18.8569V18.9711C21.0749 18.9996 21.104 19.0568 21.104 19.0853C21.104 19.1138 21.1332 19.1425 21.1626 19.171C21.1918 19.1995 21.2212 19.2282 21.2504 19.2567C21.3674 19.3713 21.5138 19.4285 21.6602 19.4285H21.7772C21.8064 19.4285 21.865 19.4 21.8942 19.4C21.9234 19.4 21.9528 19.3715 21.982 19.3428C22.0112 19.3143 22.0406 19.3143 22.0698 19.2856L22.1576 19.1999C22.1868 19.1714 22.1868 19.1427 22.2162 19.1142C22.2454 19.0857 22.2454 19.057 22.2454 19V18.8858V18.7716C22.2454 18.7431 22.2162 18.6859 22.2162 18.6574C22.2162 18.6289 22.187 18.6002 22.1576 18.5717C22.1284 18.5432 22.1284 18.5145 22.099 18.486C21.9526 18.3431 21.777 18.2859 21.5722 18.3431C21.543 18.3431 21.4844 18.3716 21.4552 18.3716C21.426 18.4001 21.3966 18.4001 21.3674 18.4288C21.3382 18.4573 21.3088 18.486 21.2796 18.486C21.2504 18.5145 21.221 18.5432 21.221 18.5717C21.1918 18.6002 21.1918 18.6289 21.1624 18.6574C21.1333 18.6859 21.1333 18.7146 21.1333 18.7716C21.0749 18.7712 21.0749 18.8284 21.0749 18.8569H21.0749ZM21.0749 21.7141C21.0749 21.857 21.1334 21.9999 21.2504 22.1141C21.3674 22.2285 21.5138 22.2857 21.6602 22.2857C21.8066 22.2857 21.953 22.2285 22.07 22.1143C22.1286 22.0571 22.1578 22.0001 22.187 21.9429C22.2456 21.857 22.2456 21.7998 22.2456 21.7141V21.5999C22.2456 21.5714 22.2164 21.5142 22.2164 21.4857C22.2164 21.4572 22.1872 21.4285 22.1578 21.4C22.1286 21.3715 22.0992 21.3428 22.0992 21.3143C21.8942 21.0857 21.4844 21.0857 21.2796 21.3143C21.2504 21.3428 21.221 21.3715 21.221 21.4C21.1918 21.4285 21.1918 21.4572 21.1624 21.4857C21.1332 21.5142 21.1332 21.5429 21.1332 21.5999C21.0748 21.6284 21.0748 21.6856 21.0748 21.7141L21.0749 21.7141ZM18.1478 15.9998V16.114C18.1478 16.1425 18.177 16.1997 18.177 16.2282C18.177 16.2567 18.2062 16.2854 18.2356 16.3139C18.2648 16.3424 18.2942 16.3711 18.3234 16.3996C18.4404 16.5142 18.5868 16.5714 18.7332 16.5714C18.821 16.5714 18.8796 16.5714 18.9674 16.5142C19.026 16.4857 19.1138 16.457 19.143 16.4C19.2599 16.2856 19.3185 16.1427 19.3185 15.9998V15.8856C19.3185 15.8571 19.2893 15.7999 19.2893 15.7714C19.2893 15.7429 19.2601 15.7142 19.2307 15.6857C19.2015 15.6572 19.2016 15.6285 19.1721 15.6C19.143 15.5715 19.1136 15.5428 19.0844 15.5428C19.0552 15.5428 19.0258 15.5143 18.9966 15.4856C18.9674 15.4856 18.938 15.4571 18.8796 15.4571H18.6454C18.6162 15.4571 18.5576 15.4856 18.5284 15.4856C18.4992 15.5141 18.4698 15.5141 18.4406 15.5428C18.4114 15.5713 18.382 15.6 18.3528 15.6C18.3236 15.6285 18.2942 15.6572 18.2942 15.6857C18.265 15.7142 18.265 15.7429 18.2356 15.7714C18.2064 15.7999 18.2064 15.8286 18.2064 15.8856C18.1478 15.9141 18.1478 15.9713 18.1478 15.9998H18.1478ZM18.1478 18.8569V18.9711C18.1478 18.9996 18.177 19.0568 18.177 19.0853C18.177 19.1138 18.2062 19.1425 18.2356 19.171C18.2648 19.1995 18.2942 19.2282 18.3234 19.2567C18.382 19.3139 18.4404 19.3424 18.499 19.3709C18.5868 19.4285 18.6454 19.4285 18.7332 19.4285C18.8796 19.4285 19.026 19.3713 19.143 19.2571C19.2599 19.1427 19.3185 18.9998 19.3185 18.8569V18.7427C19.3185 18.7142 19.2893 18.657 19.2893 18.6285C19.2893 18.6 19.2601 18.5713 19.2307 18.5428C19.2015 18.5143 19.1721 18.4856 19.1721 18.4571C19.143 18.4286 19.1136 18.3999 19.0844 18.3999C19.0552 18.3714 19.0258 18.3714 18.9966 18.3427C18.9674 18.3427 18.938 18.3142 18.8796 18.3142C18.6746 18.2857 18.499 18.3427 18.3528 18.4571C18.3236 18.4856 18.2942 18.5143 18.2942 18.5428C18.265 18.5713 18.265 18.6 18.2356 18.6285C18.2064 18.657 18.2064 18.6857 18.2064 18.7427C18.1478 18.7712 18.1478 18.8284 18.1478 18.8569H18.1478ZM18.1478 21.7141C18.1478 21.857 18.2064 21.9999 18.3234 22.1141C18.382 22.1713 18.4404 22.1998 18.499 22.2283C18.5868 22.2857 18.6454 22.2857 18.7332 22.2857C18.8796 22.2857 19.026 22.2285 19.143 22.1143C19.2599 21.9999 19.3185 21.857 19.3185 21.7141V21.5999C19.3185 21.5714 19.2893 21.5142 19.2893 21.4857C19.2893 21.4572 19.2601 21.4285 19.2307 21.4C19.2015 21.3715 19.2016 21.3428 19.1721 21.3143C19.0258 21.1714 18.8502 21.1142 18.6454 21.1714C18.6162 21.1714 18.5576 21.1999 18.5284 21.1999C18.4992 21.2284 18.4698 21.2284 18.4406 21.2571C18.4114 21.2856 18.382 21.3143 18.3528 21.3143C18.3236 21.3428 18.2942 21.3715 18.2942 21.4C18.265 21.4285 18.265 21.4572 18.2356 21.4857C18.2064 21.5142 18.2064 21.5429 18.2064 21.5999C18.1478 21.6284 18.1478 21.6856 18.1478 21.7141L18.1478 21.7141ZM15.2208 15.9998V16.114C15.2208 16.1425 15.2499 16.1997 15.2499 16.2282C15.2499 16.2567 15.2791 16.2854 15.3085 16.3139C15.3377 16.3424 15.3671 16.3711 15.3963 16.3996C15.4549 16.4568 15.5133 16.4853 15.5719 16.5138C15.6597 16.5714 15.7183 16.5714 15.8061 16.5714C15.8939 16.5714 15.9525 16.5714 16.0403 16.5142C16.0989 16.4857 16.1867 16.457 16.2159 16.4C16.2451 16.3715 16.2745 16.3428 16.2745 16.3143C16.3037 16.2858 16.3037 16.2571 16.3331 16.2286C16.3623 16.2001 16.3623 16.1714 16.3623 16.1144V16.0002V15.886C16.3623 15.8575 16.3331 15.8003 16.3331 15.7718C16.3331 15.7433 16.3039 15.7146 16.2745 15.6861C16.2453 15.6576 16.2453 15.6289 16.2159 15.6004C16.0109 15.3718 15.6011 15.3718 15.3963 15.6004C15.2791 15.7142 15.2207 15.8571 15.2207 15.9998L15.2208 15.9998ZM15.2208 18.8569V18.9711C15.2208 18.9996 15.2499 19.0568 15.2499 19.0853C15.2499 19.1138 15.2791 19.1425 15.3085 19.171C15.3377 19.1995 15.3671 19.2282 15.3963 19.2567C15.4549 19.3139 15.5133 19.3424 15.5719 19.3709C15.6597 19.4285 15.7183 19.4285 15.8061 19.4285C15.8939 19.4285 15.9525 19.4285 16.0403 19.3713C16.0989 19.3428 16.1867 19.3141 16.2159 19.2571C16.3329 19.1427 16.3915 18.9998 16.3915 18.8569V18.7427C16.3915 18.7142 16.3623 18.657 16.3623 18.6285C16.3623 18.6 16.3331 18.5713 16.3037 18.5428C16.2745 18.5143 16.2745 18.4856 16.2451 18.4571C16.0987 18.3142 15.9231 18.257 15.7183 18.3142C15.6891 18.3142 15.6305 18.3427 15.6013 18.3427C15.5721 18.3712 15.5427 18.3712 15.5136 18.3999C15.4844 18.4284 15.455 18.4571 15.4258 18.4571C15.3966 18.4856 15.3672 18.5143 15.3672 18.5428C15.338 18.5713 15.338 18.6 15.3086 18.6285C15.2794 18.657 15.2794 18.6857 15.2794 18.7427C15.2208 18.7712 15.2208 18.8284 15.2208 18.8569H15.2208ZM15.2208 21.7141C15.2208 21.857 15.2794 21.9999 15.3963 22.1141C15.5133 22.2285 15.6597 22.2857 15.8061 22.2857C15.9525 22.2857 16.0989 22.2285 16.2159 22.1143C16.3329 21.9999 16.3915 21.857 16.3915 21.7141V21.5999C16.3915 21.5714 16.3623 21.5142 16.3623 21.4857C16.3623 21.4572 16.3331 21.4285 16.3037 21.4C16.2745 21.3715 16.2745 21.3428 16.2451 21.3143C16.0987 21.1714 15.9231 21.1142 15.7183 21.1714C15.6891 21.1714 15.6305 21.1999 15.6013 21.1999C15.5721 21.2284 15.5427 21.2284 15.5135 21.2571C15.4843 21.2856 15.4549 21.3143 15.4257 21.3143C15.3965 21.3428 15.3671 21.3715 15.3671 21.4C15.338 21.4285 15.338 21.4572 15.3085 21.4857C15.2794 21.5142 15.2794 21.5429 15.2794 21.5999C15.2208 21.6284 15.2208 21.6856 15.2208 21.7141L15.2208 21.7141ZM22.8311 10.8569H14.6353C13.9914 10.8569 13.4646 11.3711 13.4646 11.9996V12.571H24.002V11.9996C24.002 11.3711 23.475 10.8569 22.8311 10.8569Z" fill="#FF6961"/>
</svg>
