<svg width="20" height="24" viewBox="0 0 20 24" fill="none" xmlns="http://www.w3.org/2000/svg">
<g clip-path="url(#clip0_10_2771)">
<path d="M11.6667 6.375V0H1.25C0.557292 0 0 0.501562 0 1.125V22.875C0 23.4984 0.557292 24 1.25 24H18.75C19.4427 24 20 23.4984 20 22.875V7.5H12.9167C12.2292 7.5 11.6667 6.99375 11.6667 6.375ZM6.66667 13.125C6.66667 13.3322 6.48021 13.5 6.25 13.5H5.83333C5.37292 13.5 5 13.8356 5 14.25V15.75C5 16.1644 5.37292 16.5 5.83333 16.5H6.25C6.48021 16.5 6.66667 16.6678 6.66667 16.875V17.625C6.66667 17.8322 6.48021 18 6.25 18H5.83333C4.4526 18 3.33333 16.9927 3.33333 15.75V14.25C3.33333 13.0073 4.4526 12 5.83333 12H6.25C6.48021 12 6.66667 12.1678 6.66667 12.375V13.125ZM8.9724 18H8.33333C8.10312 18 7.91667 17.8322 7.91667 17.625V16.875C7.91667 16.6678 8.10312 16.5 8.33333 16.5H8.9724C9.28229 16.5 9.51458 16.3359 9.51458 16.1897C9.51458 16.1287 9.47552 16.065 9.40417 16.0097L8.26406 15.1298C7.82292 14.7914 7.56979 14.3105 7.56979 13.8108C7.56979 12.8123 8.56042 12.0005 9.77865 12.0005H10.4167C10.6469 12.0005 10.8333 12.1683 10.8333 12.3755V13.1255C10.8333 13.3327 10.6469 13.5005 10.4167 13.5005H9.7776C9.46771 13.5005 9.23542 13.6645 9.23542 13.8108C9.23542 13.8717 9.27448 13.9355 9.34583 13.9908L10.4859 14.8706C10.9271 15.2091 11.1802 15.69 11.1802 16.1897C11.1807 17.1877 10.1906 18 8.9724 18ZM13.3333 12.375V13.35C13.3333 14.3002 13.6302 15.233 14.1667 16.0163C14.7031 15.2334 15 14.3002 15 13.35V12.375C15 12.1678 15.1865 12 15.4167 12H16.25C16.4802 12 16.6667 12.1678 16.6667 12.375V13.35C16.6667 15.0131 15.9958 16.5792 14.7771 17.7605C14.6198 17.9128 14.3984 18 14.1667 18C13.9349 18 13.7135 17.9128 13.5562 17.7605C12.3375 16.5792 11.6667 15.0131 11.6667 13.35V12.375C11.6667 12.1678 11.8531 12 12.0833 12H12.9167C13.1469 12 13.3333 12.1678 13.3333 12.375ZM19.6354 4.92188L14.5365 0.328125C14.3021 0.117188 13.9844 0 13.651 0H13.3333V6H20V5.71406C20 5.41875 19.8698 5.13281 19.6354 4.92188Z" fill="#0066FF"/>
</g>
<defs>
<clipPath id="clip0_10_2771">
<rect width="20" height="24" fill="white"/>
</clipPath>
</defs>
</svg>
