<svg width="50" height="50" viewBox="0 0 50 50" fill="none" xmlns="http://www.w3.org/2000/svg">
<path d="M25 25C22.7083 25 20.7465 24.184 19.1146 22.5521C17.4826 20.9201 16.6667 18.9583 16.6667 16.6667C16.6667 14.375 17.4826 12.4132 19.1146 10.7813C20.7465 9.14931 22.7083 8.33334 25 8.33334C27.2917 8.33334 29.2535 9.14931 30.8854 10.7813C32.5174 12.4132 33.3333 14.375 33.3333 16.6667C33.3333 18.9583 32.5174 20.9201 30.8854 22.5521C29.2535 24.184 27.2917 25 25 25ZM8.33333 41.6667V35.8333C8.33333 34.6528 8.6375 33.5674 9.24583 32.5771C9.85417 31.5868 10.6611 30.8319 11.6667 30.3125C13.8194 29.2361 16.0069 28.4285 18.2292 27.8896C20.4514 27.3507 22.7083 27.0819 25 27.0833C27.2917 27.0833 29.5486 27.3528 31.7708 27.8917C33.9931 28.4306 36.1806 29.2375 38.3333 30.3125C39.3403 30.8333 40.1479 31.5889 40.7562 32.5792C41.3646 33.5694 41.6681 34.6542 41.6667 35.8333V41.6667H8.33333Z" fill="#217BBC"/>
</svg>
