<svg width="32" height="32" viewBox="0 0 32 32" fill="none" xmlns="http://www.w3.org/2000/svg">
<path d="M16 10.6667H5.33335C4.62611 10.6667 3.94783 10.9476 3.44774 11.4477C2.94764 11.9478 2.66669 12.6261 2.66669 13.3333V18.6667C2.66669 19.3739 2.94764 20.0522 3.44774 20.5523C3.94783 21.0524 4.62611 21.3333 5.33335 21.3333H6.66669V26.6667C6.66669 27.0203 6.80716 27.3594 7.05721 27.6095C7.30726 27.8595 7.6464 28 8.00002 28H10.6667C11.0203 28 11.3594 27.8595 11.6095 27.6095C11.8595 27.3594 12 27.0203 12 26.6667V21.3333H16L22.6667 26.6667V5.33333L16 10.6667ZM28.6667 16C28.6667 18.28 27.3867 20.3467 25.3334 21.3333V10.6667C27.3734 11.6667 28.6667 13.7333 28.6667 16Z" fill="#1C1C1C"/>
</svg>
