<svg width="106" height="106" viewBox="0 0 106 106" fill="none" xmlns="http://www.w3.org/2000/svg">
<g clip-path="url(#clip0_10_1490)">
<path fill-rule="evenodd" clip-rule="evenodd" d="M92.7502 88.3333C93.8759 88.3346 94.9586 88.7656 95.7772 89.5384C96.5958 90.3112 97.0884 91.3674 97.1543 92.4912C97.2203 93.6149 96.8547 94.7215 96.1321 95.5848C95.4096 96.448 94.3847 97.0028 93.2669 97.1357L92.7502 97.1667H13.2502C12.1244 97.1654 11.0417 96.7344 10.2231 95.9616C9.40454 95.1888 8.91195 94.1326 8.84597 93.0088C8.78 91.8851 9.14563 90.7785 9.86815 89.9152C10.5907 89.052 11.6156 88.4972 12.7334 88.3643L13.2502 88.3333H92.7502ZM32.074 16.6597C32.8143 16.4615 33.5877 16.4197 34.3451 16.5368C35.1024 16.6539 35.8271 16.9274 36.473 17.3398L37.0118 17.7329L64.3245 40.2182L81.2492 37.1618C84.2032 36.6283 87.2448 36.8641 90.0813 37.8465C92.9178 38.8289 95.4537 40.5248 97.4451 42.771C99.4635 45.0456 100.32 48.0577 99.3222 51.0081C98.5648 53.2476 97.3001 55.2819 95.6269 56.952C93.9536 58.6222 91.9171 59.8831 89.6762 60.6364L88.7619 60.9147L22.1718 78.758C21.3308 78.983 20.4448 78.978 19.6065 78.7433C18.7681 78.5087 18.0082 78.0531 17.4062 77.4242L17.0264 76.9737L2.99465 58.2205C2.58506 57.6737 2.30652 57.0402 2.18053 56.3687C2.05453 55.6973 2.08444 55.0059 2.26794 54.3478C2.45145 53.6897 2.78365 53.0826 3.23893 52.5732C3.6942 52.0639 4.26039 51.6659 4.89382 51.41L5.41498 51.2377L15.4408 48.5524C16.219 48.3438 17.0335 48.3081 17.827 48.4477C18.6205 48.5873 19.3739 48.8989 20.0341 49.3607L20.52 49.7361L24.0357 52.8277L34.6136 48.6937L17.5343 26.9947C17.1051 26.4493 16.809 25.8113 16.6696 25.1313C16.5303 24.4514 16.5515 23.7484 16.7316 23.0781C16.9118 22.4078 17.2458 21.7889 17.7071 21.2704C18.1685 20.7519 18.7445 20.3482 19.3893 20.0914L19.8884 19.928L32.074 16.6597ZM32.71 25.6343L28.5804 26.7385L45.2003 47.8678C46.9361 50.0717 46.2161 53.2562 43.8179 54.5458L43.3188 54.7799L24.7688 62.0232C24.0945 62.2869 23.3662 62.3824 22.6467 62.3016C21.9273 62.2208 21.2383 61.9661 20.6392 61.5595L20.202 61.2194L16.0194 57.5403L13.9391 58.1012L22.4854 69.5272L86.4785 52.3817C88.4395 51.8561 90.0339 50.4516 90.8068 48.5922C89.9048 47.5864 88.7799 46.8058 87.5222 46.3126C86.2644 45.8195 84.9087 45.6276 83.5635 45.7522L82.8259 45.8538L63.9049 49.2723C62.8063 49.4709 61.6732 49.2502 60.7293 48.654L60.2788 48.3227L32.7188 25.6343H32.71Z" fill="white"/>
</g>
<defs>
<clipPath id="clip0_10_1490">
<rect width="106" height="106" fill="white"/>
</clipPath>
</defs>
</svg>
