<svg width="45" height="45" viewBox="0 0 45 45" fill="none" xmlns="http://www.w3.org/2000/svg">
<path d="M40 40H5V5H40M40 0H5C3.67392 0 2.40215 0.526784 1.46447 1.46447C0.526784 2.40215 0 3.67392 0 5V40C0 41.3261 0.526784 42.5979 1.46447 43.5355C2.40215 44.4732 3.67392 45 5 45H40C41.3261 45 42.5979 44.4732 43.5355 43.5355C44.4732 42.5979 45 41.3261 45 40V5C45 3.67392 44.4732 2.40215 43.5355 1.46447C42.5979 0.526784 41.3261 0 40 0ZM33.75 33.125C33.75 29.375 26.25 27.5 22.5 27.5C18.75 27.5 11.25 29.375 11.25 33.125V35H33.75M22.5 23.125C23.9918 23.125 25.4226 22.5324 26.4775 21.4775C27.5324 20.4226 28.125 18.9918 28.125 17.5C28.125 16.0082 27.5324 14.5774 26.4775 13.5225C25.4226 12.4676 23.9918 11.875 22.5 11.875C21.0082 11.875 19.5774 12.4676 18.5225 13.5225C17.4676 14.5774 16.875 16.0082 16.875 17.5C16.875 18.9918 17.4676 20.4226 18.5225 21.4775C19.5774 22.5324 21.0082 23.125 22.5 23.125Z" fill="#45C380"/>
</svg>
