<svg width="22" height="27" viewBox="0 0 22 27" fill="none" xmlns="http://www.w3.org/2000/svg">
<path fill-rule="evenodd" clip-rule="evenodd" d="M3.70832 2.87208H18.2184V23.2135H17.0092L17.0102 4.08005L3.70809 4.13931L3.70832 2.87208ZM21.091 0V20.3414H19.8814L19.8826 1.20848L6.58053 1.26754V0.000129029L21.091 0ZM8.99325 16.3806C8.80257 15.9113 8.21965 15.7749 7.76593 15.6406C7.25395 15.4891 6.72164 15.3536 6.28159 15.0501C4.97001 14.145 5.0617 11.9567 6.58091 11.2941C6.73612 11.2264 6.89959 11.181 7.06608 11.1458L6.9276 10.074H8.56994L8.42925 11.1641C8.70237 11.2272 8.966 11.3243 9.19965 11.4721C9.69328 11.7841 9.96075 12.2832 10.078 12.8171L8.76666 13.0767C8.70377 12.8907 8.6038 12.7169 8.44779 12.5921C8.26537 12.4458 8.02349 12.3789 7.78483 12.371C7.35791 12.3573 6.8006 12.468 6.63775 12.8981C6.54765 13.1358 6.60832 13.4121 6.79033 13.5959C6.9536 13.7602 7.34968 13.9315 7.97833 14.1101C8.6076 14.2885 9.07283 14.4729 9.37417 14.6634C9.67531 14.8541 9.91133 15.1147 10.0819 15.4451C10.5874 16.4269 10.3804 17.8862 9.45219 18.5849C9.16174 18.8031 8.8126 18.9404 8.44861 19.013L8.56996 19.9535H6.92762L7.05279 18.9846C6.70529 18.8979 6.37878 18.7482 6.10644 18.5258C5.58558 18.0999 5.3155 17.4648 5.19213 16.817L6.44184 16.5346C6.54967 17.2056 7.04815 17.7351 7.78665 17.7351C8.20288 17.7351 8.5167 17.6295 8.72774 17.4179C8.99724 17.1476 9.13894 16.7392 8.9932 16.3806L8.99325 16.3806ZM0.196392 24.0603L2.1423 26.007L3.54078 24.6084L4.93559 26.0032L6.34593 24.6164L7.73249 26.0032L9.14263 24.6164L10.529 26.0032L11.951 24.6049L13.3529 26.0068L15.3462 24.0129V5.74427H0.196289L0.196392 24.0603Z" fill="#60B158"/>
</svg>
